<svg xmlns="http://www.w3.org/2000/svg" xmlns:xlink="http://www.w3.org/1999/xlink" width="668.734" height="633.959" viewBox="0 0 668.734 633.959">
  <defs>
    <filter id="Path_27" x="0" y="17.306" width="668.734" height="616.653" filterUnits="userSpaceOnUse">
      <feOffset dx="15" dy="23" input="SourceAlpha"/>
      <feGaussianBlur stdDeviation="21" result="blur"/>
      <feFlood flood-opacity="0.102"/>
      <feComposite operator="in" in2="blur"/>
      <feComposite in="SourceGraphic"/>
    </filter>
  </defs>
  <g id="Group_4401" data-name="Group 4401" transform="translate(-1057.554 -4410)">
    <g transform="matrix(1, 0, 0, 1, 1057.55, 4410)" filter="url(#Path_27)">
      <path id="Path_27-2" data-name="Path 27" d="M221.095,0C343.2,0,504.526,137.418,442.19,221.095S284.081,235.31,221.095,442.19,0,343.2,0,221.095,98.988,0,221.095,0Z" transform="matrix(-0.07, 1, -1, -0.07, 590.73, 93.03)" fill="#ffd100" opacity="0.72"/>
    </g>
    <g id="Group_4364" data-name="Group 4364" transform="translate(21.125 1725)">
      <g id="Group_4363" data-name="Group 4363" transform="translate(1512.039 3028.524)">
        <path id="Path_4193" data-name="Path 4193" d="M434.1,493.751H540.371v21.6H434.1V513.6h9.172V495.5H434.1Z" transform="translate(-433.649 -439.311)" fill="#49535a" fill-rule="evenodd"/>
        <path id="Path_4194" data-name="Path 4194" d="M436.463,495.666h101.68v18.1H435.6a17.9,17.9,0,0,0,.858-18.1Z" transform="translate(-433.779 -439.476)" fill="#e5e6e7" fill-rule="evenodd"/>
        <path id="Path_4195" data-name="Path 4195" d="M487.295,493.751H544.95c8.127,0,8.127,21.6,0,21.6H487.295c4.047-2.2,5.5-7.9,4.61-13.4A12.687,12.687,0,0,0,487.295,493.751Z" transform="translate(-438.228 -439.311)" fill="#25257e" fill-rule="evenodd"/>
        <path id="Path_4196" data-name="Path 4196" d="M484.315,513.6H434.1v1.75h52.079c4.6-5.2,4.474-15.954.2-21.6H434.1v1.75h49.889C487.853,500.293,488.166,509.153,484.315,513.6Z" transform="translate(-433.649 -439.311)" fill="#181853" fill-rule="evenodd"/>
        <path id="Path_4197" data-name="Path 4197" d="M549.608,470.121H443.337v21.6H549.608v-1.75h-9.172v-18.1h9.172Z" transform="translate(-434.444 -437.277)" fill="#49535a" fill-rule="evenodd"/>
        <path id="Path_4198" data-name="Path 4198" d="M547.6,472.036H445.916v18.1H548.455a17.9,17.9,0,0,1-.858-18.1Z" transform="translate(-434.666 -437.442)" fill="#e5e6e7" fill-rule="evenodd"/>
        <path id="Path_4199" data-name="Path 4199" d="M500.418,470.121H442.763c-8.127,0-8.127,21.6,0,21.6h57.655C493.673,488.048,494.124,474.649,500.418,470.121Z" transform="translate(-433.87 -437.277)" fill="#f1de62" fill-rule="evenodd"/>
        <path id="Path_4200" data-name="Path 4200" d="M504.175,489.967H554.39v1.75H502.311c-4.6-5.2-4.474-15.954-.2-21.6H554.39v1.75H504.5C500.637,476.663,500.323,485.523,504.175,489.967Z" transform="translate(-439.226 -437.277)" fill="#ac9d3d" fill-rule="evenodd"/>
        <path id="Path_4201" data-name="Path 4201" d="M453.8,451.478h75.576c4.445,0,8.082,2.09,8.082,4.644v7.751c0,2.554-3.636,4.644-8.082,4.644H453.8V467.3h15.039V452.7H453.8Z" transform="translate(-435.345 -435.672)" fill="#6f5e46" fill-rule="evenodd"/>
        <path id="Path_4202" data-name="Path 4202" d="M453.8,451.478h45.008v17.038H453.8V467.3h15.039V452.7H453.8Z" transform="translate(-435.345 -435.672)" fill="#796a53" fill-rule="evenodd"/>
        <path id="Path_4203" data-name="Path 4203" d="M455.361,467.412h74.384c2.9,0,5.947-1.353,5.947-3.424v-7.751c0-2.072-3.048-3.424-5.947-3.424H455.361a20.375,20.375,0,0,1,0,14.6Z" transform="translate(-435.479 -435.787)" fill="#cfd0d2" fill-rule="evenodd"/>
        <path id="Path_4204" data-name="Path 4204" d="M500.15,467.412a20.375,20.375,0,0,0,0-14.6H455.361a20.375,20.375,0,0,1,0,14.6Z" transform="translate(-435.479 -435.787)" fill="#e5e6e7" fill-rule="evenodd"/>
        <g id="Group_4294" data-name="Group 4294" transform="translate(65.275 35.751)">
          <rect id="Rectangle_2193" data-name="Rectangle 2193" width="44.517" height="0.487" fill="#babcbe"/>
          <rect id="Rectangle_2194" data-name="Rectangle 2194" width="44.517" height="0.487" transform="translate(0 1.581)" fill="#babcbe"/>
          <rect id="Rectangle_2195" data-name="Rectangle 2195" width="44.517" height="0.487" transform="translate(0 3.163)" fill="#babcbe"/>
          <rect id="Rectangle_2196" data-name="Rectangle 2196" width="44.517" height="0.487" transform="translate(0 4.744)" fill="#babcbe"/>
          <rect id="Rectangle_2197" data-name="Rectangle 2197" width="44.517" height="0.487" transform="translate(0 6.325)" fill="#babcbe"/>
          <rect id="Rectangle_2198" data-name="Rectangle 2198" width="44.517" height="0.487" transform="translate(0 7.906)" fill="#babcbe"/>
          <rect id="Rectangle_2199" data-name="Rectangle 2199" width="44.517" height="0.487" transform="translate(0 9.487)" fill="#babcbe"/>
          <rect id="Rectangle_2200" data-name="Rectangle 2200" width="44.517" height="0.487" transform="translate(0 11.069)" fill="#babcbe"/>
          <rect id="Rectangle_2201" data-name="Rectangle 2201" width="44.517" height="0.487" transform="translate(0 12.65)" fill="#babcbe"/>
          <rect id="Rectangle_2202" data-name="Rectangle 2202" width="44.517" height="0.487" transform="translate(0 14.231)" fill="#babcbe"/>
        </g>
        <rect id="Rectangle_2203" data-name="Rectangle 2203" width="44.517" height="0.487" transform="translate(65.275 51.563)" fill="#babcbe"/>
        <g id="Group_4295" data-name="Group 4295" transform="translate(5.996 58.153)">
          <rect id="Rectangle_2204" data-name="Rectangle 2204" width="44.517" height="0.487" fill="#babcbe"/>
          <rect id="Rectangle_2205" data-name="Rectangle 2205" width="44.517" height="0.487" transform="translate(0 1.581)" fill="#babcbe"/>
          <rect id="Rectangle_2206" data-name="Rectangle 2206" width="44.517" height="0.487" transform="translate(0 3.163)" fill="#babcbe"/>
          <rect id="Rectangle_2207" data-name="Rectangle 2207" width="44.517" height="0.487" transform="translate(0 4.744)" fill="#babcbe"/>
          <rect id="Rectangle_2208" data-name="Rectangle 2208" width="44.517" height="0.487" transform="translate(0 6.325)" fill="#babcbe"/>
          <rect id="Rectangle_2209" data-name="Rectangle 2209" width="44.517" height="0.487" transform="translate(0 7.906)" fill="#babcbe"/>
          <rect id="Rectangle_2210" data-name="Rectangle 2210" width="44.517" height="0.487" transform="translate(0 9.487)" fill="#babcbe"/>
          <rect id="Rectangle_2211" data-name="Rectangle 2211" width="44.517" height="0.487" transform="translate(0 11.069)" fill="#babcbe"/>
          <rect id="Rectangle_2212" data-name="Rectangle 2212" width="44.517" height="0.487" transform="translate(0 12.65)" fill="#babcbe"/>
          <rect id="Rectangle_2213" data-name="Rectangle 2213" width="44.517" height="0.487" transform="translate(0 14.231)" fill="#babcbe"/>
        </g>
        <g id="Group_4296" data-name="Group 4296" transform="translate(22.462 18.229)">
          <rect id="Rectangle_2214" data-name="Rectangle 2214" width="74.873" height="0.418" fill="#babcbe"/>
          <rect id="Rectangle_2215" data-name="Rectangle 2215" width="74.873" height="0.418" transform="translate(0 1.359)" fill="#babcbe"/>
          <rect id="Rectangle_2216" data-name="Rectangle 2216" width="74.873" height="0.419" transform="translate(0 2.718)" fill="#babcbe"/>
          <rect id="Rectangle_2217" data-name="Rectangle 2217" width="74.873" height="0.419" transform="translate(0 4.077)" fill="#babcbe"/>
          <rect id="Rectangle_2218" data-name="Rectangle 2218" width="74.873" height="0.419" transform="translate(0 5.436)" fill="#babcbe"/>
          <rect id="Rectangle_2219" data-name="Rectangle 2219" width="74.873" height="0.419" transform="translate(0 6.795)" fill="#babcbe"/>
          <rect id="Rectangle_2220" data-name="Rectangle 2220" width="74.873" height="0.419" transform="translate(0 8.154)" fill="#babcbe"/>
          <rect id="Rectangle_2221" data-name="Rectangle 2221" width="74.873" height="0.419" transform="translate(0 9.513)" fill="#babcbe"/>
          <rect id="Rectangle_2222" data-name="Rectangle 2222" width="74.873" height="0.419" transform="translate(0 10.872)" fill="#babcbe"/>
          <rect id="Rectangle_2223" data-name="Rectangle 2223" width="74.873" height="0.419" transform="translate(0 12.231)" fill="#babcbe"/>
        </g>
        <path id="Path_4205" data-name="Path 4205" d="M433.607,434.183H539.879V449.99H433.607v-1.281h9.172V435.464h-9.172Z" transform="translate(-433.607 -434.183)" fill="#49535a" fill-rule="evenodd"/>
        <path id="Path_4206" data-name="Path 4206" d="M435.97,435.585h101.68v13.244H435.112a10.731,10.731,0,0,0,2.907-7.156A10.382,10.382,0,0,0,435.97,435.585Z" transform="translate(-433.736 -434.304)" fill="#e5e6e7" fill-rule="evenodd"/>
        <path id="Path_4207" data-name="Path 4207" d="M486.8,434.183h57.656c8.127,0,8.127,15.806,0,15.806H486.8C493.547,447.3,493.1,437.5,486.8,434.183Z" transform="translate(-438.186 -434.183)" fill="#e5615f" fill-rule="evenodd"/>
        <path id="Path_4208" data-name="Path 4208" d="M483.822,448.708H433.607v1.281h52.079c4.6-3.8,4.474-11.676.2-15.806h-52.28v1.281H483.5C487.36,438.971,487.673,445.456,483.822,448.708Z" transform="translate(-433.607 -434.183)" fill="#a23635" fill-rule="evenodd"/>
        <g id="Group_4297" data-name="Group 4297" transform="translate(5.546 2.718)">
          <rect id="Rectangle_2224" data-name="Rectangle 2224" width="44.517" height="0.357" fill="#babcbe"/>
          <rect id="Rectangle_2225" data-name="Rectangle 2225" width="44.517" height="0.356" transform="translate(0 1.157)" fill="#babcbe"/>
          <rect id="Rectangle_2226" data-name="Rectangle 2226" width="44.517" height="0.356" transform="translate(0 2.314)" fill="#babcbe"/>
          <rect id="Rectangle_2227" data-name="Rectangle 2227" width="44.517" height="0.356" transform="translate(0 3.472)" fill="#babcbe"/>
          <rect id="Rectangle_2228" data-name="Rectangle 2228" width="44.517" height="0.356" transform="translate(0 4.629)" fill="#babcbe"/>
          <rect id="Rectangle_2229" data-name="Rectangle 2229" width="44.517" height="0.356" transform="translate(0 5.786)" fill="#babcbe"/>
          <rect id="Rectangle_2230" data-name="Rectangle 2230" width="44.517" height="0.356" transform="translate(0 6.944)" fill="#babcbe"/>
          <rect id="Rectangle_2231" data-name="Rectangle 2231" width="44.517" height="0.356" transform="translate(0 8.101)" fill="#babcbe"/>
          <rect id="Rectangle_2232" data-name="Rectangle 2232" width="44.517" height="0.356" transform="translate(0 9.258)" fill="#babcbe"/>
          <rect id="Rectangle_2233" data-name="Rectangle 2233" width="44.517" height="0.357" transform="translate(0 10.416)" fill="#babcbe"/>
        </g>
      </g>
      <path id="Path_4448" data-name="Path 4448" d="M157.426,183.884s3.241,32.982-13.513,38.186C143.912,222.07,130.321,196.608,157.426,183.884Z" transform="translate(1351.013 2902.246)" fill="#013b61"/>
      <path id="Path_4449" data-name="Path 4449" d="M115.933,161.384s32.323-11.378,38.17-29.4c0,0-13.75-10.747-30.977,3S115.933,161.384,115.933,161.384Z" transform="translate(1308.578 2815.925)" fill="#47939d"/>
      <path id="Path_4450" data-name="Path 4450" d="M122.982,89.011A88.143,88.143,0,0,1,70.723,71.689c-.1,11.882-2.254,36.211-16.655,57.469,0,0,40.463,21.495,55.319,16.121s36.354-27.5,36.354-27.5A149.061,149.061,0,0,1,133.019,88.41,86.786,86.786,0,0,1,122.982,89.011Z" transform="translate(1217.525 2728.978)" fill="#e3956f"/>
      <path id="Path_4451" data-name="Path 4451" d="M83.64,163.908S31.481,206.584,44.76,239.3s42.674,49.788,108.109,2.845,85.35-12.8,85.35-12.8-4.979-41.964-13.516-45.758-26.54-39.117-26.54-39.117S137.695,204.213,83.64,163.908Z" transform="translate(1199.807 2841.375)" fill="#013b61"/>
      <path id="Path_4452" data-name="Path 4452" d="M145.4,191.449s15.727-1.58,48.681-5.137,50.024,9.01,46.231,15.174-24.894,21.81-49.788,16.831-28.606-7.111-45.124-6.875S141.767,189.948,145.4,191.449Z" transform="translate(1345.887 2905.034)" fill="#efdfd7"/>
      <path id="Path_4453" data-name="Path 4453" d="M166.739,209.031c.695-12.4,10.083-19.009,20.678-22.815-28.4,3.051-42.015,4.42-42.015,4.42-3.636-1.5-16.515,20.23,0,19.993a90.311,90.311,0,0,1,21.528,1.888A16.792,16.792,0,0,1,166.739,209.031Z" transform="translate(1345.887 2905.847)" fill="#e3c7b9" opacity="0.55"/>
      <path id="Path_4454" data-name="Path 4454" d="M72.083,265.915S182.721,139.963,209.908,148.181s56.584,39.2,24.973,60.377-132.766,74.287-132.766,74.287S93.578,272.414,72.083,265.915Z" transform="translate(1245.346 2846.513)" fill="#386195"/>
      <path id="Path_4455" data-name="Path 4455" d="M198.254,149.49c-3.135,6.3,1.03,12.7,2.407,21.011,1.656,9.987.718,21.156-6.514,28.932-14.7,15.813-38.761,10.559-53.838-1.834a31.951,31.951,0,0,1-10.226-15.889C114.934,195.436,99.33,211.068,86,224.958c4.506,2.814,8.821,6.028,13.027,9.254,1.4,1.074,2.834,2.114,4.244,3.178a94.341,94.341,0,0,1,18.169,7.664c3.8,2.094,7.893,4.389,11.915,6.949,29.67-16.136,63.9-35.252,80.032-46.06C241.177,187.322,221.812,161.135,198.254,149.49Z" transform="translate(1266.839 2849.13)" fill="#013b61"/>
      <path id="Path_4456" data-name="Path 4456" d="M128.583,170.735c-30.14,29.759-56.5,59.754-56.5,59.754,21.495,6.5,30.031,16.93,30.031,16.93s35.583-18.681,71.135-38.3A91.154,91.154,0,0,1,128.583,170.735Z" transform="translate(1245.346 2881.939)" fill="#013b61"/>
      <path id="Path_4457" data-name="Path 4457" d="M118.547,212.327s-2.666-16.436-28.688-16.93c-6.048-.114-9.4-1.369-12.327-1.7-9.658-1.086-9.567,1.7-11.617,4.086-6.338,7.381-7.587,16.833,7.348,17.78s16.124,12.694,30.346,14.169S122.34,226.947,118.547,212.327Z" transform="translate(1228.914 2917.031)" fill="#efdfd7"/>
      <g id="Group_4343" data-name="Group 4343" transform="translate(1375.424 2998.62)">
        <path id="Path_4458" data-name="Path 4458" d="M110.143,185.81s-8.315,8.1,0,12.91,33.443,11.333,29.466,4-7.956-14.643-8.137-16.05S110.143,185.81,110.143,185.81Z" transform="translate(-77.007 -93.558)" fill="#efdfd7"/>
        <g id="Group_4342" data-name="Group 4342" transform="translate(17.196)">
          <path id="Path_4459" data-name="Path 4459" d="M134.33,177.454s-12.157,14.271-2.969,17.07,35.753,7.269,30.219,1.028-11.06-12.462-11.556-13.79S134.33,177.454,134.33,177.454Z" transform="translate(-61.032 -106.304)" fill="#efdfd7"/>
          <path id="Path_4460" data-name="Path 4460" d="M170.037,222.3c7.343,3.946,15.694,5.61,23.708,3.911,29.428-33.677,23.881-43.234,21.914-52.948-1.992-9.849-63.011-23.774-63.011-23.774-3.674,3.211-51.014,11.358-51.014,11.358,17.314,13.653,65.39,22.07,73.31,27C180.751,191.467,174.055,212.447,170.037,222.3Z" transform="translate(-101.635 -149.49)" fill="#36b947"/>
          <path id="Path_4461" data-name="Path 4461" d="M183.12,226.566a19.657,19.657,0,0,1-3.272-6.218c-2.867-8.727,3.761-25.65,9.63-31.629s13.683-4.911,22.543-2.066a34.814,34.814,0,0,1,4.9,2.015c1.231-6.6-.364-11-1.257-15.4-1.992-9.849-63.011-23.774-63.011-23.774-3.674,3.211-51.014,11.358-51.014,11.358,17.314,13.653,65.39,22.07,73.31,27,5.806,3.616-.891,24.6-4.908,34.45A38.132,38.132,0,0,0,183.12,226.566Z" transform="translate(-101.635 -149.49)" fill="#079840"/>
        </g>
        <path id="Path_4462" data-name="Path 4462" d="M109.816,153.272s-32.074,28.38-2.229,34.695,37.018,7.46,37.018,7.46-10.618,3.445-21.235,45.34c0,0,20.948,2.295,27.835,2.295,0,0,40.463-37.018,31.28-57.535s-34.886-21.665-43.127-25.11S109.816,153.272,109.816,153.272Z" transform="translate(-94.876 -143.649)" fill="#36b947"/>
        <path id="Path_4463" data-name="Path 4463" d="M123.369,240.767s3.791.415,8.663.891c-4.554-11.556,4.646-28.123,13.406-37.2,3.28-3.394,20.556-16.07,8.081-21.82-5.918-2.73-11.5-5.9-17.3-8.8-8.806-4.412-16.625-7.941-22.545-16.045a11,11,0,0,1-1.934-4.178c-1.2-.221-1.921-.346-1.921-.346s-32.074,28.38-2.229,34.695,37.018,7.46,37.018,7.46S133.987,198.872,123.369,240.767Z" transform="translate(-94.876 -143.649)" fill="#079840"/>
      </g>
      <path id="Path_4464" data-name="Path 4464" d="M93.277,210.092c-.781-.949-1.514-1.9-2.282-2.786-1.135-.247-2.264-.511-3.379-.807-4.763-1.254-10.088-2.282-14.2-5.165a31.493,31.493,0,0,1-6.826-6.44c-.191.216-.369.422-.6.672-6.638,7.111-7.587,16.833,7.348,17.78s16.124,12.694,30.346,14.169c11.241,1.168,16.388-1.275,16.192-9.554C110.861,223.224,99.182,217.285,93.277,210.092Z" transform="translate(1228.837 2919.251)" fill="#e3c7b9" opacity="0.55"/>
      <path id="Path_4465" data-name="Path 4465" d="M288.419,261.021s-.712-23.724,13.513-38.186c0,0-105.659-19.993-164.456-56.663,0,0-23.075-14.541-47.416-3.16S51.5,189.546,48.966,195.563c-1.778,4.226-6.455,23.164,9.483,31.865,6.737,3.679,23.779-4.094,35.562,0C136.074,242.041,183,254.08,288.419,261.021Z" transform="translate(1206.506 2863.294)" fill="#386195"/>
      <path id="Path_4466" data-name="Path 4466" d="M277.441,209.393c-7.651,2.908-16.307,3.453-25.879,2.781-20.759-1.463-41.709-1.583-62.415-3.677a417.685,417.685,0,0,1-69.318-12.915c-10.931-3.091-24.66-6.793-33.725-12.472-11.689-.272-20.222-.033-30.008,6.692-.361.247-.712.5-1.069.756,7.989-.852,18.454-3.57,26.484-.781,42.063,14.612,88.986,26.652,194.408,33.593A67.559,67.559,0,0,1,277.441,209.393Z" transform="translate(1219.006 2900.946)" fill="#013b61"/>
      <path id="Path_4467" data-name="Path 4467" d="M121.917,166.174S98.842,151.633,74.5,163.011a133.138,133.138,0,0,0-17.492,9.847l.064.028a18.371,18.371,0,0,0,11.6,1.12c13.116-2.717,26.443,1.628,39.755,4.122,9.574,1.8,20.192,1.038,29.466,4.262,6.587,2.29,13.167,5.486,20.044,6.819a75.094,75.094,0,0,0,14.342,1.234C154.156,183.425,136.58,175.318,121.917,166.174Z" transform="translate(1222.065 2863.293)" fill="#013b61"/>
      <path id="Path_4468" data-name="Path 4468" d="M63.771,173.165s1.494,23.512,11.691,34.4l6.05,1.982S63.059,181.215,63.771,173.165Z" transform="translate(1232.479 2885.692)" fill="#013b61"/>
      <path id="Path_4469" data-name="Path 4469" d="M57.609,176.15S71.076,198.37,82.116,202l6.681,2.216S70.649,186.345,57.609,176.15Z" transform="translate(1222.994 2890.302)" fill="#013b61"/>
      <path id="Path_4470" data-name="Path 4470" d="M54.627,179.644s17.617,12.747,24.161,14.2a57.348,57.348,0,0,1,9.269,2.636S67.311,181.423,54.627,179.644Z" transform="translate(1218.388 2895.698)" fill="#013b61"/>
      <path id="Path_4471" data-name="Path 4471" d="M214.862,213.231c-6.4-11.47-15.846-14.019-25.347-24.731-9.335-10.529-45.574-57.685-59.81-71.42-13.9-13.406-20.2,2.822-20.2,2.822a33.1,33.1,0,0,0-5.765,11.679c.371,1.224.695,2.486,1.048,3.722a89.667,89.667,0,0,1,9.964,19.851c3.458-1.331,6.572.433,11.651,9.4,10.073,17.79,52.525,34.781,52.525,34.781-4.768,6.223-2.941,12.462-3.8,13.877s-5.58.857-5.4,4.109c.183,3.272,4.4,5.615,9.964,3.926s4.486-11.9,4.486-11.9c1.812,2.292,6.949,8.2,8.786,17.177,1.862,9.1,2.089,15.289,7.5,12.424a3.823,3.823,0,0,0,1.786-3.43c1.064,3.715,2.168,5.819,4.588,4.3a4,4,0,0,0,1.555-2.987c.046,1.023.056,1.656.056,1.656s4.86,5.17,6.707-1.934c.509-1.949.117-4.562-.69-7.307C216.137,228.283,220.658,223.609,214.862,213.231Zm-10.582,5.18c1.789,2.478,2.806,6.72,3.392,10.676A79.729,79.729,0,0,0,204.28,218.411Zm3.1-4.4c1.982,2.117,3.575,5.725,4.7,8.928A87.757,87.757,0,0,0,207.379,214.015Z" transform="translate(1294.233 2790.884)" fill="#ffc2a5"/>
      <path id="Path_4472" data-name="Path 4472" d="M145.75,177.977c5.183-9.4,15.118-12.908,25.026-12.416-14.241-17.711-32.059-39.786-41.071-48.48-13.9-13.406-20.2,2.822-20.2,2.822a33.1,33.1,0,0,0-5.765,11.679c.371,1.224.695,2.486,1.048,3.722a89.667,89.667,0,0,1,9.964,19.851c3.458-1.331,6.572.433,11.651,9.4,3.315,5.855,10.142,11.618,17.8,16.721A29.716,29.716,0,0,1,145.75,177.977Z" transform="translate(1294.233 2790.884)" fill="#e3956f"/>
      <path id="Path_4473" data-name="Path 4473" d="M200.6,158.449c-6.134-29.082,10.3-45.2,10.3-45.2S171.59,93.164,167.931,87.518c0,0-1.163,1.443-3.188,3.516a15.94,15.94,0,0,1-3.257,6.073,31.648,31.648,0,0,1-14.862,9.9,14.781,14.781,0,0,1-24.263.723c-.046-.01-.092-.015-.135-.023a42.76,42.76,0,0,1-11.493-3.776c-14.559-3.2-27.922-7.758-27.922-7.758s-40.086,34.456-45.144,40.463c0,0,38.13,38.916,45.144,61.184s7.33,39.509,5.592,56.492c0,0,52.948,22.993,73.811,19.2s55-20.23,55-20.23S206.732,187.534,200.6,158.449Z" transform="translate(1192.198 2753.424)" fill="#98b3ff"/>
      <path id="Path_4474" data-name="Path 4474" d="M191.8,119.024c-.277-1.321-.483-2.6-.669-3.865a63.736,63.736,0,0,0-2.305,14.3c-.226,14.1.239,27.9-4.715,40.636,4.249,7.427,5.732,16.693,3.631,24.332A30.553,30.553,0,0,1,173.8,212.559a27.118,27.118,0,0,1-7.05,2.918,23.439,23.439,0,0,1-11.03,5.425c-5.692,1.107-13.06,3.066-18.762.888-.687-.262-1.308-.506-1.88-.73-5.267,1.1-30.4-13.353-32.12-19.6-1.857-6.753-4.623-15.686-2.025-21.8a65.9,65.9,0,0,1-7.849-12.129,34.277,34.277,0,0,1-2.315-6C84.558,149.4,79.026,136.8,69.139,127.194c-7.292-7.086-16.373-10.857-25.777-14.147,11.577,13.317,26.522,32.224,30.657,45.35,7.015,22.268,7.33,39.509,5.592,56.492,0,0,52.948,22.993,73.811,19.2s55-20.23,55-20.23S197.939,148.108,191.8,119.024Z" transform="translate(1200.991 2792.849)" fill="#6a8cf0"/>
      <path id="Path_4475" data-name="Path 4475" d="M113.454,97.631s25.171,42.358,52.05,59.362c0,0,12.485,7.755,10.59,15.805s-3.053,6.073-3.053,6.073-33.9,0-38.17,29.4c0,0-12.248,0-18.836-19.6-2.224-6.61-2.537-6.671-6.773-13.592-5.656-9.236-9.643-33.692-8.2-52.317C102.2,108.086,107.324,97.491,113.454,97.631Z" transform="translate(1289.641 2769.039)" fill="#98b3ff"/>
      <path id="Path_4476" data-name="Path 4476" d="M114.114,147.292c-6.14-12.226-8.658-25.83-12.928-38.786-.916,14.055-1.112,36.031,8.068,49.775,4.506,6.748,4.549,6.982,6.773,13.592,6.587,19.6,18.836,19.6,18.836,19.6a30.683,30.683,0,0,1,9.788-18.93C131.8,168.25,120.436,159.879,114.114,147.292Z" transform="translate(1289.648 2785.836)" fill="#6a8cf0"/>
      <path id="Path_4477" data-name="Path 4477" d="M122.432,108.455,114.5,136.791,48.714,106.839l17.3-16.648Z" transform="translate(1209.256 2757.552)" fill="#6a8cf0"/>
      <path id="Path_4478" data-name="Path 4478" d="M95.6,135.165,75.789,115.717l26.286-29.5,16.507,10.5Z" transform="translate(1251.07 2751.42)" fill="#6a8cf0"/>
      <path id="Path_4479" data-name="Path 4479" d="M119.83,110.085l-5.769,21.575-64.6-24.894L64.608,87.518Z" transform="translate(1210.402 2753.424)" fill="#98b3ff"/>
      <path id="Path_4480" data-name="Path 4480" d="M93.157,126.975,77.115,113.224l19.97-27.739,16.833,10.7Z" transform="translate(1253.117 2750.285)" fill="#98b3ff"/>
      <path id="Path_4481" data-name="Path 4481" d="M76.6,97.63s26.13,71.654,25.5,147.572C102.095,245.2,116.534,191.511,76.6,97.63Z" transform="translate(1252.319 2769.04)" fill="#6a8cf0"/>
      <g id="Group_4345" data-name="Group 4345" transform="translate(1327.807 2887.929)">
        <g id="Group_4344" data-name="Group 4344">
          <path id="Path_4482" data-name="Path 4482" d="M81.91,109.516c.634,2.328-.089,4.552-1.613,4.967s-3.272-1.135-3.906-3.463.089-4.552,1.611-4.967S81.277,107.188,81.91,109.516Z" transform="translate(-76.162 -105.986)" fill="#e5fffa"/>
          <path id="Path_4483" data-name="Path 4483" d="M84.447,124.047c.634,2.328-.087,4.552-1.611,4.967s-3.272-1.137-3.906-3.465.087-4.549,1.611-4.964S83.813,121.719,84.447,124.047Z" transform="translate(-72.241 -83.545)" fill="#e5fffa"/>
          <path id="Path_4484" data-name="Path 4484" d="M86.858,139.326c.3,2.394-.735,4.493-2.3,4.687s-3.076-1.593-3.371-3.987.735-4.493,2.3-4.687S86.562,136.931,86.858,139.326Z" transform="translate(-68.484 -60.676)" fill="#e5fffa"/>
          <path id="Path_4485" data-name="Path 4485" d="M88.462,153.535c.3,2.4-.735,4.493-2.3,4.687s-3.079-1.59-3.374-3.984.735-4.493,2.3-4.687S88.167,151.141,88.462,153.535Z" transform="translate(-66.01 -38.728)" fill="#e5fffa"/>
        </g>
      </g>
      <path id="Path_4486" data-name="Path 4486" d="M71.194,69.9s-6.162-15.172-19.439-7.111,7,33.679,20.624,23.708C76.356,83.582,71.194,69.9,71.194,69.9Z" transform="translate(1207.274 2711.582)" fill="#ffc2a5"/>
      <path id="Path_4487" data-name="Path 4487" d="M50.714,52.867s6.162,79.895,38.17,96.492,58.757,5.338,55.24-12.091c-4.506-22.332-7.824-38.407-12.33-52.869s1.422-29.873-9.956-42.676S56.167,32.713,50.714,52.867Z" transform="translate(1212.345 2671.239)" fill="#ffc2a5"/>
      <path id="Path_4488" data-name="Path 4488" d="M49.844,63.35s10.116-3,13.355,5.295c2.074,5.308-.02,11.8-4.208,9.819s-.473-6.519-1.6-9.185C56.075,66.162,54.347,64.851,49.844,63.35Z" transform="translate(1211.002 2715.283)" fill="#dc8a64"/>
      <path id="Path_4491" data-name="Path 4491" d="M58.913,60.049s-.22,4.627,2.624,4.035,22.452-9.646,21.82-14.426-5.6-2.845-9.034,0S60.931,58.153,58.913,60.049Z" transform="translate(1225.007 2689.739)" fill="#583c24"/>
      <path id="Path_4492" data-name="Path 4492" d="M91.237,54.072a3.031,3.031,0,0,0,2.268-1.095,3.987,3.987,0,0,0,0-4.613c-3.018-4.491-16.953-4.03-17.546-1.72s.316,5.6,2.385,5.116C81.143,50.468,87.706,53.6,91.237,54.072Z" transform="translate(1251.031 2689.656)" fill="#583c24"/>
      <path id="Path_4493" data-name="Path 4493" d="M63.312,42.748s-3-6.323-10.59-1.265S33.6,55.078,47.98,76.257c0,0,5.216,8.691,2.371,14.541s7.429,9.8,11.381,7.114S69,89.579,80.856,98.8c0,0,4.9-11.325,1.422-22.7S71.846,41.483,63.312,42.748Z" transform="translate(1197.533 2679.301)" fill="#39220e"/>
      <path id="Path_4494" data-name="Path 4494" d="M87.58,88.364a7.3,7.3,0,0,1-9.948-.242C71.238,81.8,61.053,70.981,58.605,63.958c-3.633-10.432-3.791-1.669-3.791-1.669s3.633,24.4,5.689,29.235,16.833,35.814,30.738,41.346c7.506,2.987,36.527,3.669,51.319-1.432,5.86-2.02,4.872-22.591-6.982-47.249-3.277-6.816-13.7-5.712-17.757-4.122s-10.671,4.61-17.4,2.542C97.587,81.735,92.267,84.3,87.58,88.364Z" transform="translate(1218.677 2709.144)" fill="#39220e"/>
      <path id="Path_4495" data-name="Path 4495" d="M72.112,72.761c-.687-.5,6.165,11.221,15.332,9.483s7.585-13.131,7.585-13.131S85.073,82.243,72.112,72.761Z" transform="translate(1245.318 2724.998)" fill="#fff"/>
      <path id="Path_4496" data-name="Path 4496" d="M80.128,69.732c0,4.165-4.147,7.541-9.264,7.541S61.6,73.9,61.6,69.732s4.147-7.541,9.261-7.541S80.128,65.567,80.128,69.732Z" transform="translate(1229.162 2714.31)" fill="#ffb299" opacity="0.55"/>
      <path id="Path_4497" data-name="Path 4497" d="M90.3,60.524a7.627,7.627,0,0,0-3.432-.809c-3.616,0-6.547,2.387-6.547,5.33s2.931,5.33,6.547,5.33A7.081,7.081,0,0,0,92.127,68.2C91.524,65.544,90.916,63,90.3,60.524Z" transform="translate(1258.073 2710.486)" fill="#ffb299" opacity="0.55"/>
      <g id="Group_4350" data-name="Group 4350" transform="translate(1317.217 2759.192)">
        <path id="Path_4498" data-name="Path 4498" d="M79.425,91.424a8.5,8.5,0,0,1-5.234-1.463c-1.621-1.249-3.18-3.842-1.4-9.1a1.9,1.9,0,1,1,3.593,1.211c-.583,1.735-1.036,3.987.127,4.883C78.9,88.8,86.824,86.518,89.7,84.625c.715-2.061-4.766-15.431-10.48-26.466a1.9,1.9,0,1,1,3.366-1.745c9.6,18.52,12.694,29.079,9.2,31.379A26.758,26.758,0,0,1,79.425,91.424Z" transform="translate(-71.999 -55.388)" fill="#df9378"/>
      </g>
      <path id="Path_4499" data-name="Path 4499" d="M104.482,120.681s3.081,15.884-2.847,22.286c0,0,5.692,5.928,16.833,1.422s13.752-7.824,13.752-7.824-10.432-6.162-9.246-20.388C122.974,116.178,117.283,123.289,104.482,120.681Z" transform="translate(1290.985 2797.684)" fill="#e3956f"/>
      <path id="Path_4500" data-name="Path 4500" d="M105.385,117.429S95.9,102.1,86.575,108.735s4.615,24.617,21.021,19.284C111.611,126.713,105.385,117.429,105.385,117.429Z" transform="translate(1263.097 2783.615)" fill="#ffc2a5"/>
      <path id="Path_4501" data-name="Path 4501" d="M84.957,111.776s6.628-5.132,11.414.081c3.061,3.333,3.376,8.74-.293,8.48s-2.226-4.692-3.827-6.343C90.382,112.066,88.725,111.593,84.957,111.776Z" transform="translate(1265.228 2787.401)" fill="#dc8a64"/>
      <path id="Path_4502" data-name="Path 4502" d="M86.832,119.377s9.641,27.227,16.755,34.715,10.114,13.49,20.864,15.228,22.917,1.74,29.082,0,28.133-22.126,21.968-37.931-7.269-8.063-12.17-31.453-.315-.791-.315-.791-4.267-8.06-22.919-4.74S103.9,93.928,94.1,103.729,85.409,112.421,86.832,119.377Z" transform="translate(1266.695 2756.221)" fill="#ffc2a5"/>
      <path id="Path_4503" data-name="Path 4503" d="M105.637,91.415s-11.432-2.893-17.3,1.9c-4.969,4.053-2.305,13.294-6.424,20.39-5.692,9.8,7.631,22.352,7.631,22.352s9.167-11.223,18.253,10.238c0,0,5.933-1.356,5.908-2.748s-7.809-14.314-8.066-18.345,10.414-13.04,9.465-24.538S108.128,90.42,105.637,91.415Z" transform="translate(1258.339 2758.104)" fill="#702530"/>
      <path id="Path_4504" data-name="Path 4504" d="M90.681,103.959s11.063,16.421,36.43,11.994c0,0,11.144-2.845,16.518-7.745s10.383,7.669,13.648,8.951,6.938-6.295-2.544-16.554c-3.626-3.921-2.57-12.47-17.1-9.724-7.346,1.389-19.332-10.768-29.018-8.592C101.96,83.782,90.681,91.771,90.681,103.959Z" transform="translate(1274.068 2744.944)" fill="#702530"/>
      <g id="Group_4352" data-name="Group 4352" transform="translate(1415.167 2873.202)">
        <g id="Group_4351" data-name="Group 4351">
          <path id="Path_4505" data-name="Path 4505" d="M112.391,109.7a1.9,1.9,0,0,1-1.71-2.712c.1-.209,2.506-5.17,7.3-6.478,2.842-.776,5.827-.125,8.867,1.929a1.9,1.9,0,0,1-2.122,3.142c-2.084-1.407-4.018-1.885-5.748-1.41-3.084.84-4.857,4.409-4.875,4.448A1.9,1.9,0,0,1,112.391,109.7Z" transform="translate(-110.496 -100.197)" fill="#9e3724"/>
        </g>
      </g>
      <g id="Group_4354" data-name="Group 4354" transform="translate(1382.133 2880.551)">
        <g id="Group_4353" data-name="Group 4353">
          <path id="Path_4506" data-name="Path 4506" d="M99.411,113.62a1.849,1.849,0,0,1-.748-.153,1.894,1.894,0,0,1-.995-2.488c.1-.242,2.59-5.911,8.134-7.491,3.646-1.038,7.636-.066,11.846,2.89a1.9,1.9,0,0,1-2.178,3.1c-3.229-2.262-6.134-3.058-8.63-2.343-3.768,1.069-5.669,5.29-5.687,5.33A1.89,1.89,0,0,1,99.411,113.62Z" transform="translate(-97.513 -103.086)" fill="#9e3724"/>
        </g>
      </g>
      <g id="Group_4355" data-name="Group 4355" transform="translate(1405.541 2882.804)">
        <path id="Path_4507" data-name="Path 4507" d="M110.5,117.789c-2.509,0-3.392-1.275-3.7-2.046a1.328,1.328,0,1,1,2.471-.974c.107.277.888.476,2.1.3,2.555-.377,4.865-1.967,4.916-2.588a31.145,31.145,0,0,1-5.928-6.46,1.329,1.329,0,0,1,2.231-1.443,27.934,27.934,0,0,0,5.216,5.7,2.724,2.724,0,0,1,.985,3.1c-.822,2.4-5.035,4.338-8.116,4.412Z" transform="translate(-106.713 -103.971)" fill="#df9378"/>
      </g>
      <path id="Path_4508" data-name="Path 4508" d="M126.1,98.677s-4.356-5.753-13.829-1.343c-7.468,3.478-2.02,9.053,2.465,5.417s6.592-2.051,10.5-2.018C127.563,100.751,126.1,98.677,126.1,98.677Z" transform="translate(1301.711 2766.013)" fill="#702530"/>
      <path id="Path_4509" data-name="Path 4509" d="M96.925,110.069c.4.094,2.224-1.491,2.72-1.789.944-.57,1.911-1.1,2.9-1.585a18.916,18.916,0,0,1,7.1-2.145c5.768-.315,10.035-2.766,3.87-5.847-4.427-2.214-12.406.949-15.093,3.557C97.446,103.209,93.358,109.293,96.925,110.069Z" transform="translate(1281.495 2769.544)" fill="#702530"/>
      <ellipse id="Ellipse_26" data-name="Ellipse 26" cx="7.745" cy="4.584" rx="7.745" ry="4.584" transform="translate(1379.131 2897.882)" fill="#ffb299"/>
      <path id="Path_4510" data-name="Path 4510" d="M128.431,106.593c1.084,2.287-1.17,5.626-5.038,7.457s-7.877,1.458-8.961-.829,1.173-5.626,5.038-7.457S127.35,104.305,128.431,106.593Z" transform="translate(1310.33 2779.806)" fill="#ffb299"/>
      <path id="Path_4511" data-name="Path 4511" d="M104.459,115s6.234,10.549,16.643,7.231c7.511-2.394,6.9-12.33,6.9-12.33s-6.519,3.57-10.429,4.453S108.37,116.182,104.459,115Z" transform="translate(1295.346 2787.984)" fill="#fff"/>
      <path id="Path_4512" data-name="Path 4512" d="M179.817,155.827c-12.439-29.385-38.193-33.12-38.193-33.12-10.3,7.427-23.83,3.867-23.83,3.867-13.785,3.188-21.1,12.961-24.927,23.477a28.626,28.626,0,0,1,7.33,7.595,21.121,21.121,0,0,1,2.865,4.386c1.893,3.916,5.786,16.335,6.91,17.64-1.761,10.233-.1,21.22,1.768,22.744,3.872,3.163,56.856-2.931,56.9-9.4.025-3.87-2.651-21.54-6.1-31.919C167.22,159.257,174.418,160.887,179.817,155.827Z" transform="translate(1277.444 2807.768)" fill="#ffe341"/>
      <path id="Path_4513" data-name="Path 4513" d="M153.6,142.7a11.752,11.752,0,0,1,1.468-.445,47.535,47.535,0,0,1-4.221-7.155c-2.326,4.269-4.486,11.852-6.2,18.327.626.832,1.137,1.544.232.578a28.143,28.143,0,0,1,3.562,4.343,13.35,13.35,0,0,1,.249,13.686c-4.224,8.094-13.79,6.773-21.22,7.122-6.623.31-13.541-1.392-17-7.623a15.439,15.439,0,0,1-.639-12.836c.313-.832.667-1.646,1.033-2.453-.061-.377-.16-.753-.211-1.127-1.684-12.74-8.8-19.52-10.656-20.492a30.891,30.891,0,0,1,1.623,4.626c1.506,5.941-.023,11.467-2.959,16.378a32.152,32.152,0,0,0,2.374,5.651c-1.761,10.233-.1,21.217,1.768,22.744,3.872,3.163,56.856-2.931,56.9-9.4C159.726,170.745,157.05,153.074,153.6,142.7Z" transform="translate(1286.386 2826.165)" fill="#ffca40"/>
      <g id="Group_4356" data-name="Group 4356" transform="translate(1429.735 3009.977)">
        <path id="Path_4514" data-name="Path 4514" d="M143.1,156.557a12.812,12.812,0,0,0-7.882-2.468s-16.241-1.659-18.375,6.638,1.9,7.231,1.9,7.231.631,4.7,5.216,2.964c0,0,2.529,2.45,6.241-.158,0,0,3.241,1.186,5.02-1.265s2.962-7.745,6.2-7.508c.186.015.315-.018.494-.013A16.764,16.764,0,0,1,143.1,156.557Z" transform="translate(-116.222 -153.954)" fill="#ffc2a5"/>
        <path id="Path_4515" data-name="Path 4515" d="M121.2,156.3s-4.911,1.122-3.906,8.027C117.3,164.33,117.29,159.089,121.2,156.3Z" transform="translate(-114.775 -150.326)" fill="#d78965"/>
        <path id="Path_4516" data-name="Path 4516" d="M122.3,157.491s-3.875.5-3,7.7C119.3,165.2,119.273,159.5,122.3,157.491Z" transform="translate(-111.667 -148.491)" fill="#d78965"/>
        <path id="Path_4517" data-name="Path 4517" d="M124.814,157.491s-3.878.5-3,7.7C121.815,165.2,121.787,159.5,124.814,157.491Z" transform="translate(-107.786 -148.491)" fill="#d78965"/>
      </g>
      <path id="Path_4518" data-name="Path 4518" d="M127.858,176.547c0,1.72,3.437,14.192-1.723,19.6,0,0,5.888.257,11.5,9.6,6.452-4.735,16.576-20.876,10-41.669-5.262-16.645-13.928-27.507-28-37.837,0,0-4.074,24.744,2.071,37.524S127.858,174.827,127.858,176.547Z" transform="translate(1316.75 2813.228)" fill="#ffe341"/>
      <path id="Path_4519" data-name="Path 4519" d="M126.132,186.215a9.323,9.323,0,0,1,3.206,1.081c4.252-10.2,6.725-16.34,4.7-25.851-1.455-6.852-9.775-4.715-12.768-20.731-.392-2.091-1.641-6.447-2.946-8.04-.071,7.251.618,15.411,3.384,21.161,6.145,12.78,6.145,11.06,6.145,12.78S131.292,180.808,126.132,186.215Z" transform="translate(1316.754 2823.16)" fill="#ffca40"/>
      <g id="Group_4359" data-name="Group 4359" transform="translate(1404.856 3016.163)">
        <path id="Path_4529" data-name="Path 4529" d="M115.9,157.955S131.46,153,135.249,160.69s-.377,7.465-.377,7.465.343,4.732-4.5,3.969c0,0-1.974,2.916-6.145,1.125,0,0-2.929,1.822-5.17-.211s-4.486-6.974-7.61-6.078a7.529,7.529,0,0,1-5,0S106.77,160.026,115.9,157.955Z" transform="translate(-106.444 -156.385)" fill="#ffc2a5"/>
        <path id="Path_4530" data-name="Path 4530" d="M115.467,158.237s5.038.092,5.47,7.058C120.937,165.3,119.869,160.163,115.467,158.237Z" transform="translate(-92.509 -153.525)" fill="#d78965"/>
        <path id="Path_4531" data-name="Path 4531" d="M114.092,159.739s3.9-.305,4.514,6.928C118.606,166.667,117.466,161.088,114.092,159.739Z" transform="translate(-94.633 -151.208)" fill="#d78965"/>
        <path id="Path_4532" data-name="Path 4532" d="M111.633,160.254s3.9-.308,4.514,6.926C116.147,167.18,115.007,161.6,111.633,160.254Z" transform="translate(-98.43 -150.413)" fill="#d78965"/>
      </g>
      <path id="Path_4533" data-name="Path 4533" d="M105.721,128.721S84.092,147.892,90.48,193.609c0,0,4.722,16.4,48.136,18.64,0,0,3.771-4.1,1.806-13.442,0,0-24.627-10.361-26.347-12.818s1.1-13.131,3.554-20.258S113.586,125.281,105.721,128.721Z" transform="translate(1271.936 2816.671)" fill="#ffe341"/>
      <path id="Path_4534" data-name="Path 4534" d="M102.706,132.488c1.061,11.821-1.85,22.4-5.376,36.644-4.631,18.706,18.637,19.24,32.145,28.637a24.278,24.278,0,0,0-.527-5.163s-24.627-10.361-26.347-12.818,1.1-13.131,3.554-20.258C107.607,155.324,105.935,142,102.706,132.488Z" transform="translate(1283.41 2822.873)" fill="#ffca40"/>
      <g id="Group_4360" data-name="Group 4360" transform="translate(1180 2888.923)">
        <path id="Path_4535" data-name="Path 4535" d="M25.489,176.167s42.279-2.6,63.459-22.517c0,0-7.587-12.485-40.778-2.371S25.489,176.167,25.489,176.167Z" transform="translate(-9.051 -43.136)" fill="#47939d"/>
        <path id="Path_4536" data-name="Path 4536" d="M235.612,189.232s-.575.28-1.516.7a4.051,4.051,0,0,0,1.992-2.753c.28-2.865-2.1-2.923-5.933-2.221a3.863,3.863,0,0,0,2.3-3.152c.158-6.165-5.531-3.636-14.7-1.267s-17.07.318-20.072-.316c0,0,10.114-3.636,9.167-9.483s-5.058-8.694-8.221-7.43-.473,5.376-1.422,6.8-7.745,2.527-11.539,9.8c0,0-71.6-23.215-95.779-24.884-16.719-1.155-17.345-4.839-15.513-11.908-6.577,1.036-10.976,1.514-6.358.084-.611.176-1.237.305-1.847.491-8.356,1.74-16.724,3.015-25.1,4.046A40.929,40.929,0,0,0,30.141,159.2S13.7,173.742,37.094,181.33s128.146,9.73,142.941,13.559,21.6,11.414,35.346,11.887c12.228.422,14.452-5.893,14.574-7.854,2.857-.534,5.394-1.382,6.921-2.735C242.41,191.288,235.612,189.232,235.612,189.232Zm-8.864,3.562c-3.885,1.282-8.256,2.308-11.366,1.812A82.343,82.343,0,0,0,226.747,192.794Zm-14.052,6.712a90.611,90.611,0,0,0,10.417.155C219.646,200.117,215.575,200.338,212.695,199.506Z" transform="translate(-8.092 -49.637)" fill="#ffc2a5"/>
        <path id="Path_4537" data-name="Path 4537" d="M71.224,167.486c7.521-7.076,16.2-8.083,25.227-11.676-2.435-.377-4.661-.654-6.564-.786-16.719-1.155-17.345-4.839-15.513-11.908-6.577,1.036-10.976,1.514-6.358.084-.611.176-1.237.305-1.847.491-8.356,1.74-16.724,3.015-25.1,4.046A40.929,40.929,0,0,0,30.141,159.2S13.7,173.742,37.094,181.33c4.537,1.471,12.149,2.735,21.551,3.85C62.4,178.956,65.713,172.674,71.224,167.486Z" transform="translate(-8.092 -49.637)" fill="#e3956f"/>
        <path id="Path_4538" data-name="Path 4538" d="M68.985,106.376s-16.223,38.124-17.8,50.77S34.428,186.859,24.63,188.439,20.2,206,22.1,211.763s-6.681,5.127-3.183,15.874,10.294,11.531,15.589,11.773c0,0,18.256-32.774,66.621-27.647,0,0,.158-3.091-2.845-8.15s9.755,6.063,7.111-15.963c-2.135-17.782,10.905-17.307,10.905-17.307S113.9,132.972,68.985,106.376Z" transform="translate(-18.069 -106.376)" fill="#98b3ff"/>
        <path id="Path_4539" data-name="Path 4539" d="M31.571,199.638c-.768-5.829,1.224-11.007.374-16.676-1.249-8.351,1.7-14.5,7.559-20.327a16.717,16.717,0,0,1,1.369-1.221,28.089,28.089,0,0,0,8.679-10.6c4.129-9.625,5.379-20.006,5.834-30.586-2.107,6.249-3.755,11.923-4.2,15.518-1.583,12.643-16.755,29.713-26.555,31.293S20.2,184.605,22.1,190.366s-6.684,5.127-3.183,15.874,10.294,11.531,15.589,11.77a36.947,36.947,0,0,1,2.338-3.409A42.188,42.188,0,0,1,31.571,199.638Z" transform="translate(-18.069 -84.979)" fill="#6a8cf0"/>
        <path id="Path_4540" data-name="Path 4540" d="M61.4,118.06c2.577,8,3.717,16.386,1.122,23.624S56.479,154.251,50.255,158.9c-1.532,1.142-3.135,2.2-4.669,3.287-.486,2.27-.845,4.552-1.147,6.834,1.519,5.682,4.542,12.231,5.28,15.777a66.3,66.3,0,0,1,1.254,8.389,93.877,93.877,0,0,1,9.432.532s.158-3.091-2.845-8.15,9.755,6.063,7.111-15.963C62.537,151.823,75.577,152.3,75.577,152.3S74.508,136.453,61.4,118.06Z" transform="translate(22.655 -88.332)" fill="#6a8cf0"/>
      </g>
      <path id="Path_4541" data-name="Path 4541" d="M53.72,67.58c-3.015-.873-6.363-2.013-7.755-4.827C51.517,50.991,57.692,38.529,68.94,32c5.188-3.013,11.111-4.524,17.032-5.5,6.185-1.02,17.09,1.089,22.848,3.567,18.408,7.915,29.883,24.673,35.191,15.813,1.646-2.745-5.875-4-7.684-1.356,2.59-6.068,11.569-7.577,16.775-3.529s6.417,11.915,3.86,17.994-8.188,10.45-14.3,12.925c-3.549,1.438-7.5,2.328-11.205,1.361-4.5-1.175-7.829-4.814-11.335-7.859s-8.094-5.758-12.572-4.521c-5.32,1.471-7.776,7.671-12.427,10.648-3.445,2.2-7.776,2.435-11.862,2.216C73.195,73.211,63.406,70.387,53.72,67.58Z" transform="translate(1205.011 2658.771)" fill="#39220e"/>
      <ellipse id="Ellipse_27" data-name="Ellipse 27" cx="4.5" cy="3.5" rx="4.5" ry="3.5" transform="translate(1299 2759)" fill="#794633"/>
      <path id="Path_4542" data-name="Path 4542" d="M238.1,129.227s6.369-20.842,6.747-33.775A48.091,48.091,0,0,0,240.192,73.2s5.544,9.647,7.176,19.692-5.032,27.859-5.032,27.859a238.1,238.1,0,0,0,10.422-31.291s3.165,18.087-11.4,34.66Z" transform="matrix(0.629, 0.777, -0.777, 0.629, 1220.26, 2463.392)" fill="#efefef" opacity="0.59"/>
      <g id="Group_4361" data-name="Group 4361" transform="translate(1140.238 3024.212)">
        <path id="Path_4225" data-name="Path 4225" d="M90.761,612.536H201.353v30.273H90.761v-2.454h9.545V614.99H90.761Z" transform="translate(-90.292 -536.224)" fill="#49535a" fill-rule="evenodd"/>
        <path id="Path_4226" data-name="Path 4226" d="M93.22,615.221H199.035v25.366H92.328a31.609,31.609,0,0,0,3.025-13.707A32.16,32.16,0,0,0,93.22,615.221Z" transform="translate(-90.427 -536.455)" fill="#e5e6e7" fill-rule="evenodd"/>
        <path id="Path_4227" data-name="Path 4227" d="M146.119,612.536h60c8.457,0,8.457,30.273,0,30.273h-60C153.138,637.666,152.669,618.884,146.119,612.536Z" transform="translate(-95.058 -536.224)" fill="#59595b" fill-rule="evenodd"/>
        <path id="Path_4228" data-name="Path 4228" d="M143.018,640.356H90.761v2.454h54.2c4.787-7.288,4.655-22.364.208-30.273h-54.4v2.454h51.918C146.7,621.706,147.026,634.126,143.018,640.356Z" transform="translate(-90.292 -536.224)" fill="#898888" fill-rule="evenodd"/>
        <path id="Path_4229" data-name="Path 4229" d="M210.966,579.412H100.374v30.273H210.966v-2.454h-9.545V581.865h9.545Z" transform="translate(-91.12 -533.372)" fill="#49535a" fill-rule="evenodd"/>
        <path id="Path_4230" data-name="Path 4230" d="M208.873,582.1H103.058v25.366H209.765a31.593,31.593,0,0,1-3.025-13.707A32.167,32.167,0,0,1,208.873,582.1Z" transform="translate(-91.351 -533.603)" fill="#e5e6e7" fill-rule="evenodd"/>
        <path id="Path_4231" data-name="Path 4231" d="M159.775,579.412h-60c-8.457,0-8.457,30.273,0,30.273h60C152.757,604.542,153.226,585.759,159.775,579.412Z" transform="translate(-90.522 -533.372)" fill="#718e8c" fill-rule="evenodd"/>
        <path id="Path_4232" data-name="Path 4232" d="M163.684,607.231h52.258v2.454h-54.2c-4.786-7.288-4.655-22.364-.207-30.273h54.4v2.453H164.024C160,588.582,159.677,601,163.684,607.231Z" transform="translate(-96.096 -533.372)" fill="#63807f" fill-rule="evenodd"/>
        <path id="Path_4233" data-name="Path 4233" d="M111.263,553.279h78.649c4.625,0,8.41,2.929,8.41,6.509v10.866c0,3.58-3.785,6.509-8.41,6.509H111.263v-1.709h15.65V554.988h-15.65Z" transform="translate(-92.057 -531.122)" fill="#6f5e46" fill-rule="evenodd"/>
        <path id="Path_4234" data-name="Path 4234" d="M111.263,553.279H158.1v23.883H111.263v-1.709h15.65V554.988h-15.65Z" transform="translate(-92.057 -531.123)" fill="#796a53" fill-rule="evenodd"/>
        <path id="Path_4235" data-name="Path 4235" d="M112.887,575.614h77.407c3.017,0,6.189-1.9,6.189-4.8V559.949c0-2.9-3.172-4.8-6.189-4.8H112.887a37.9,37.9,0,0,1,0,20.465Z" transform="translate(-92.197 -531.283)" fill="#cfd0d2" fill-rule="evenodd"/>
        <path id="Path_4236" data-name="Path 4236" d="M159.5,575.614a37.9,37.9,0,0,0,0-20.465h-46.61a37.9,37.9,0,0,1,0,20.465Z" transform="translate(-92.197 -531.283)" fill="#e5e6e7" fill-rule="evenodd"/>
        <g id="Group_4304" data-name="Group 4304" transform="translate(67.929 50.114)">
          <rect id="Rectangle_2275" data-name="Rectangle 2275" width="46.327" height="0.683" fill="#babcbe"/>
          <rect id="Rectangle_2276" data-name="Rectangle 2276" width="46.327" height="0.683" transform="translate(0 2.217)" fill="#babcbe"/>
          <rect id="Rectangle_2277" data-name="Rectangle 2277" width="46.327" height="0.683" transform="translate(0 4.433)" fill="#babcbe"/>
          <rect id="Rectangle_2278" data-name="Rectangle 2278" width="46.327" height="0.683" transform="translate(0 6.65)" fill="#babcbe"/>
          <rect id="Rectangle_2279" data-name="Rectangle 2279" width="46.327" height="0.683" transform="translate(0 8.866)" fill="#babcbe"/>
          <rect id="Rectangle_2280" data-name="Rectangle 2280" width="46.327" height="0.683" transform="translate(0 11.083)" fill="#babcbe"/>
          <rect id="Rectangle_2281" data-name="Rectangle 2281" width="46.327" height="0.683" transform="translate(0 13.299)" fill="#babcbe"/>
          <rect id="Rectangle_2282" data-name="Rectangle 2282" width="46.327" height="0.683" transform="translate(0 15.516)" fill="#babcbe"/>
          <rect id="Rectangle_2283" data-name="Rectangle 2283" width="46.327" height="0.683" transform="translate(0 17.732)" fill="#babcbe"/>
          <rect id="Rectangle_2284" data-name="Rectangle 2284" width="46.327" height="0.683" transform="translate(0 19.949)" fill="#babcbe"/>
        </g>
        <rect id="Rectangle_2285" data-name="Rectangle 2285" width="46.327" height="0.683" transform="translate(67.929 72.28)" fill="#babcbe"/>
        <g id="Group_4305" data-name="Group 4305" transform="translate(6.239 81.517)">
          <rect id="Rectangle_2286" data-name="Rectangle 2286" width="46.327" height="0.683" fill="#babcbe"/>
          <rect id="Rectangle_2287" data-name="Rectangle 2287" width="46.327" height="0.683" transform="translate(0 2.217)" fill="#babcbe"/>
          <rect id="Rectangle_2288" data-name="Rectangle 2288" width="46.327" height="0.683" transform="translate(0 4.433)" fill="#babcbe"/>
          <rect id="Rectangle_2289" data-name="Rectangle 2289" width="46.327" height="0.683" transform="translate(0 6.65)" fill="#babcbe"/>
          <rect id="Rectangle_2290" data-name="Rectangle 2290" width="46.327" height="0.683" transform="translate(0 8.866)" fill="#babcbe"/>
          <rect id="Rectangle_2291" data-name="Rectangle 2291" width="46.327" height="0.683" transform="translate(0 11.083)" fill="#babcbe"/>
          <rect id="Rectangle_2292" data-name="Rectangle 2292" width="46.327" height="0.683" transform="translate(0 13.299)" fill="#babcbe"/>
          <rect id="Rectangle_2293" data-name="Rectangle 2293" width="46.327" height="0.683" transform="translate(0 15.516)" fill="#babcbe"/>
          <rect id="Rectangle_2294" data-name="Rectangle 2294" width="46.327" height="0.683" transform="translate(0 17.732)" fill="#babcbe"/>
          <rect id="Rectangle_2295" data-name="Rectangle 2295" width="46.327" height="0.683" transform="translate(0 19.949)" fill="#babcbe"/>
        </g>
        <g id="Group_4306" data-name="Group 4306" transform="translate(23.375 25.553)">
          <rect id="Rectangle_2296" data-name="Rectangle 2296" width="77.917" height="0.586" fill="#babcbe"/>
          <rect id="Rectangle_2297" data-name="Rectangle 2297" width="77.917" height="0.586" transform="translate(0 1.905)" fill="#babcbe"/>
          <rect id="Rectangle_2298" data-name="Rectangle 2298" width="77.917" height="0.587" transform="translate(0 3.81)" fill="#babcbe"/>
          <rect id="Rectangle_2299" data-name="Rectangle 2299" width="77.917" height="0.587" transform="translate(0 5.715)" fill="#babcbe"/>
          <rect id="Rectangle_2300" data-name="Rectangle 2300" width="77.917" height="0.586" transform="translate(0 7.62)" fill="#babcbe"/>
          <rect id="Rectangle_2301" data-name="Rectangle 2301" width="77.917" height="0.586" transform="translate(0 9.525)" fill="#babcbe"/>
          <rect id="Rectangle_2302" data-name="Rectangle 2302" width="77.917" height="0.587" transform="translate(0 11.43)" fill="#babcbe"/>
          <rect id="Rectangle_2303" data-name="Rectangle 2303" width="77.917" height="0.586" transform="translate(0 13.335)" fill="#babcbe"/>
          <rect id="Rectangle_2304" data-name="Rectangle 2304" width="77.917" height="0.586" transform="translate(0 15.241)" fill="#babcbe"/>
          <rect id="Rectangle_2305" data-name="Rectangle 2305" width="77.917" height="0.586" transform="translate(0 17.146)" fill="#babcbe"/>
        </g>
        <path id="Path_4237" data-name="Path 4237" d="M90.248,529.036H200.841v22.156H90.248v-1.8h9.545V530.831H90.248Z" transform="translate(-90.248 -529.036)" fill="#49535a" fill-rule="evenodd"/>
        <path id="Path_4238" data-name="Path 4238" d="M92.707,531H198.522v18.565H91.815A18.142,18.142,0,0,0,92.707,531Z" transform="translate(-90.383 -529.205)" fill="#e5e6e7" fill-rule="evenodd"/>
        <path id="Path_4239" data-name="Path 4239" d="M145.607,529.036h60c8.457,0,8.457,22.156,0,22.156h-60C152.625,547.428,152.156,533.681,145.607,529.036Z" transform="translate(-95.013 -529.036)" fill="#807f6f" fill-rule="evenodd"/>
        <path id="Path_4240" data-name="Path 4240" d="M142.5,549.4H90.248v1.8h54.2c4.786-5.334,4.655-16.368.207-22.156h-54.4v1.795h51.918C146.187,535.747,146.513,544.838,142.5,549.4Z" transform="translate(-90.248 -529.036)" fill="#a6a58f" fill-rule="evenodd"/>
        <g id="Group_4307" data-name="Group 4307" transform="translate(5.771 3.809)">
          <rect id="Rectangle_2306" data-name="Rectangle 2306" width="46.327" height="0.5" fill="#babcbe"/>
          <rect id="Rectangle_2307" data-name="Rectangle 2307" width="46.327" height="0.499" transform="translate(0 1.622)" fill="#babcbe"/>
          <rect id="Rectangle_2308" data-name="Rectangle 2308" width="46.327" height="0.499" transform="translate(0 3.245)" fill="#babcbe"/>
          <rect id="Rectangle_2309" data-name="Rectangle 2309" width="46.327" height="0.5" transform="translate(0 4.867)" fill="#babcbe"/>
          <rect id="Rectangle_2310" data-name="Rectangle 2310" width="46.327" height="0.499" transform="translate(0 6.489)" fill="#babcbe"/>
          <rect id="Rectangle_2311" data-name="Rectangle 2311" width="46.327" height="0.499" transform="translate(0 8.112)" fill="#babcbe"/>
          <rect id="Rectangle_2312" data-name="Rectangle 2312" width="46.327" height="0.499" transform="translate(0 9.734)" fill="#babcbe"/>
          <rect id="Rectangle_2313" data-name="Rectangle 2313" width="46.327" height="0.499" transform="translate(0 11.356)" fill="#babcbe"/>
          <rect id="Rectangle_2314" data-name="Rectangle 2314" width="46.327" height="0.499" transform="translate(0 12.978)" fill="#babcbe"/>
          <rect id="Rectangle_2315" data-name="Rectangle 2315" width="46.327" height="0.499" transform="translate(0 14.601)" fill="#babcbe"/>
        </g>
      </g>
      <path id="Path_479" data-name="Path 479" d="M249.59,412.763H384.97c5.138,0,9.6-4.36,10.8-10.542l11.408-60.232a22.211,22.211,0,0,0-3.218-15.818c-2.959-4.394-7.372-6.885-11.994-6.769l-155.155,1.449c-4.571,0-8.9,2.541-11.787,6.92a22.242,22.242,0,0,0-3.12,15.668l16.732,60.233c1.587,5.387,5.71,8.989,10.344,9.035Z" transform="translate(1131.245 2609.119)" fill="#8d0311"/>
      <ellipse id="Ellipse_29" data-name="Ellipse 29" cx="10.5" cy="10" rx="10.5" ry="10" transform="translate(1435 2962)" fill="#fff"/>
      <path id="Polygon_13" data-name="Polygon 13" d="M2.5,0,5,28H0Z" transform="matrix(-0.105, -0.995, 0.995, -0.105, 1434.838, 2974.95)" fill="#8d0311"/>
      <ellipse id="Ellipse_30" data-name="Ellipse 30" cx="4.5" cy="3.5" rx="4.5" ry="3.5" transform="translate(1334 2753)" fill="#794633"/>
    </g>
    <g id="Group_4374" data-name="Group 4374" transform="translate(238.125 4351)" opacity="0.61">
      <circle id="Ellipse_4" data-name="Ellipse 4" cx="3" cy="3" r="3" transform="translate(1091 521)" fill="#ffdd46"/>
      <circle id="Ellipse_4-2" data-name="Ellipse 4" cx="3" cy="3" r="3" transform="translate(1108 521)" fill="#ffdd46"/>
      <circle id="Ellipse_4-3" data-name="Ellipse 4" cx="3" cy="3" r="3" transform="translate(1125 521)" fill="#ffdd46"/>
      <circle id="Ellipse_4-4" data-name="Ellipse 4" cx="3" cy="3" r="3" transform="translate(1142 521)" fill="#ffdd46"/>
      <circle id="Ellipse_4-5" data-name="Ellipse 4" cx="3" cy="3" r="3" transform="translate(1159 521)" fill="#ffdd46"/>
      <circle id="Ellipse_4-6" data-name="Ellipse 4" cx="3" cy="3" r="3" transform="translate(1176 521)" fill="#ffdd46"/>
      <circle id="Ellipse_4-7" data-name="Ellipse 4" cx="3" cy="3" r="3" transform="translate(1193 521)" fill="#ffdd46"/>
      <circle id="Ellipse_4-8" data-name="Ellipse 4" cx="3" cy="3" r="3" transform="translate(1210 521)" fill="#ffdd46"/>
      <circle id="Ellipse_4-9" data-name="Ellipse 4" cx="3" cy="3" r="3" transform="translate(1227 521)" fill="#ffdd46"/>
      <circle id="Ellipse_4-10" data-name="Ellipse 4" cx="3" cy="3" r="3" transform="translate(1244 521)" fill="#ffdd46"/>
      <circle id="Ellipse_4-11" data-name="Ellipse 4" cx="3" cy="3" r="3" transform="translate(1261 521)" fill="#ffdd46"/>
      <circle id="Ellipse_4-12" data-name="Ellipse 4" cx="3" cy="3" r="3" transform="translate(1278 521)" fill="#ffdd46"/>
      <circle id="Ellipse_4-13" data-name="Ellipse 4" cx="3" cy="3" r="3" transform="translate(1295 521)" fill="#ffdd46"/>
      <circle id="Ellipse_4-14" data-name="Ellipse 4" cx="3" cy="3" r="3" transform="translate(1312 521)" fill="#ffdd46"/>
      <circle id="Ellipse_4-15" data-name="Ellipse 4" cx="3" cy="3" r="3" transform="translate(1329 521)" fill="#ffdd46"/>
      <circle id="Ellipse_4-16" data-name="Ellipse 4" cx="3" cy="3" r="3" transform="translate(1346 521)" fill="#ffdd46"/>
      <circle id="Ellipse_4-17" data-name="Ellipse 4" cx="3" cy="3" r="3" transform="translate(1363 521)" fill="#ffdd46"/>
      <circle id="Ellipse_4-18" data-name="Ellipse 4" cx="3" cy="3" r="3" transform="translate(1380 521)" fill="#ffdd46"/>
      <circle id="Ellipse_4-19" data-name="Ellipse 4" cx="3" cy="3" r="3" transform="translate(1397 521)" fill="#ffdd46"/>
      <circle id="Ellipse_4-20" data-name="Ellipse 4" cx="3" cy="3" r="3" transform="translate(1414 521)" fill="#ffdd46"/>
      <circle id="Ellipse_4-21" data-name="Ellipse 4" cx="3" cy="3" r="3" transform="translate(1091 545)" fill="#ffdd46"/>
      <circle id="Ellipse_4-22" data-name="Ellipse 4" cx="3" cy="3" r="3" transform="translate(1108 545)" fill="#ffdd46"/>
      <circle id="Ellipse_4-23" data-name="Ellipse 4" cx="3" cy="3" r="3" transform="translate(1125 545)" fill="#ffdd46"/>
      <circle id="Ellipse_4-24" data-name="Ellipse 4" cx="3" cy="3" r="3" transform="translate(1142 545)" fill="#ffdd46"/>
      <circle id="Ellipse_4-25" data-name="Ellipse 4" cx="3" cy="3" r="3" transform="translate(1159 545)" fill="#ffdd46"/>
      <circle id="Ellipse_4-26" data-name="Ellipse 4" cx="3" cy="3" r="3" transform="translate(1176 545)" fill="#ffdd46"/>
      <circle id="Ellipse_4-27" data-name="Ellipse 4" cx="3" cy="3" r="3" transform="translate(1193 545)" fill="#ffdd46"/>
      <circle id="Ellipse_4-28" data-name="Ellipse 4" cx="3" cy="3" r="3" transform="translate(1210 545)" fill="#ffdd46"/>
      <circle id="Ellipse_4-29" data-name="Ellipse 4" cx="3" cy="3" r="3" transform="translate(1227 545)" fill="#ffdd46"/>
      <circle id="Ellipse_4-30" data-name="Ellipse 4" cx="3" cy="3" r="3" transform="translate(1244 545)" fill="#ffdd46"/>
      <circle id="Ellipse_4-31" data-name="Ellipse 4" cx="3" cy="3" r="3" transform="translate(1261 545)" fill="#ffdd46"/>
      <circle id="Ellipse_4-32" data-name="Ellipse 4" cx="3" cy="3" r="3" transform="translate(1278 545)" fill="#ffdd46"/>
      <circle id="Ellipse_4-33" data-name="Ellipse 4" cx="3" cy="3" r="3" transform="translate(1295 545)" fill="#ffdd46"/>
      <circle id="Ellipse_4-34" data-name="Ellipse 4" cx="3" cy="3" r="3" transform="translate(1312 545)" fill="#ffdd46"/>
      <circle id="Ellipse_4-35" data-name="Ellipse 4" cx="3" cy="3" r="3" transform="translate(1329 545)" fill="#ffdd46"/>
      <circle id="Ellipse_4-36" data-name="Ellipse 4" cx="3" cy="3" r="3" transform="translate(1346 545)" fill="#ffdd46"/>
      <circle id="Ellipse_4-37" data-name="Ellipse 4" cx="3" cy="3" r="3" transform="translate(1363 545)" fill="#ffdd46"/>
      <circle id="Ellipse_4-38" data-name="Ellipse 4" cx="3" cy="3" r="3" transform="translate(1380 545)" fill="#ffdd46"/>
      <circle id="Ellipse_4-39" data-name="Ellipse 4" cx="3" cy="3" r="3" transform="translate(1397 545)" fill="#ffdd46"/>
      <circle id="Ellipse_4-40" data-name="Ellipse 4" cx="3" cy="3" r="3" transform="translate(1414 545)" fill="#ffdd46"/>
      <circle id="Ellipse_4-41" data-name="Ellipse 4" cx="3" cy="3" r="3" transform="translate(1091 569)" fill="#ffdd46"/>
      <circle id="Ellipse_4-42" data-name="Ellipse 4" cx="3" cy="3" r="3" transform="translate(1108 569)" fill="#ffdd46"/>
      <circle id="Ellipse_4-43" data-name="Ellipse 4" cx="3" cy="3" r="3" transform="translate(1125 569)" fill="#ffdd46"/>
      <circle id="Ellipse_4-44" data-name="Ellipse 4" cx="3" cy="3" r="3" transform="translate(1142 569)" fill="#ffdd46"/>
      <circle id="Ellipse_4-45" data-name="Ellipse 4" cx="3" cy="3" r="3" transform="translate(1159 569)" fill="#ffdd46"/>
      <circle id="Ellipse_4-46" data-name="Ellipse 4" cx="3" cy="3" r="3" transform="translate(1176 569)" fill="#ffdd46"/>
      <circle id="Ellipse_4-47" data-name="Ellipse 4" cx="3" cy="3" r="3" transform="translate(1193 569)" fill="#ffdd46"/>
      <circle id="Ellipse_4-48" data-name="Ellipse 4" cx="3" cy="3" r="3" transform="translate(1210 569)" fill="#ffdd46"/>
      <circle id="Ellipse_4-49" data-name="Ellipse 4" cx="3" cy="3" r="3" transform="translate(1227 569)" fill="#ffdd46"/>
      <circle id="Ellipse_4-50" data-name="Ellipse 4" cx="3" cy="3" r="3" transform="translate(1244 569)" fill="#ffdd46"/>
      <circle id="Ellipse_4-51" data-name="Ellipse 4" cx="3" cy="3" r="3" transform="translate(1261 569)" fill="#ffdd46"/>
      <circle id="Ellipse_4-52" data-name="Ellipse 4" cx="3" cy="3" r="3" transform="translate(1278 569)" fill="#ffdd46"/>
      <circle id="Ellipse_4-53" data-name="Ellipse 4" cx="3" cy="3" r="3" transform="translate(1295 569)" fill="#ffdd46"/>
      <circle id="Ellipse_4-54" data-name="Ellipse 4" cx="3" cy="3" r="3" transform="translate(1312 569)" fill="#ffdd46"/>
      <circle id="Ellipse_4-55" data-name="Ellipse 4" cx="3" cy="3" r="3" transform="translate(1329 569)" fill="#ffdd46"/>
      <circle id="Ellipse_4-56" data-name="Ellipse 4" cx="3" cy="3" r="3" transform="translate(1346 569)" fill="#ffdd46"/>
      <circle id="Ellipse_4-57" data-name="Ellipse 4" cx="3" cy="3" r="3" transform="translate(1363 569)" fill="#ffdd46"/>
      <circle id="Ellipse_4-58" data-name="Ellipse 4" cx="3" cy="3" r="3" transform="translate(1380 569)" fill="#ffdd46"/>
      <circle id="Ellipse_4-59" data-name="Ellipse 4" cx="3" cy="3" r="3" transform="translate(1397 569)" fill="#ffdd46"/>
      <circle id="Ellipse_4-60" data-name="Ellipse 4" cx="3" cy="3" r="3" transform="translate(1414 569)" fill="#ffdd46"/>
      <circle id="Ellipse_4-61" data-name="Ellipse 4" cx="3" cy="3" r="3" transform="translate(1091 593)" fill="#ffdd46"/>
      <circle id="Ellipse_4-62" data-name="Ellipse 4" cx="3" cy="3" r="3" transform="translate(1108 593)" fill="#ffdd46"/>
      <circle id="Ellipse_4-63" data-name="Ellipse 4" cx="3" cy="3" r="3" transform="translate(1125 593)" fill="#ffdd46"/>
      <circle id="Ellipse_4-64" data-name="Ellipse 4" cx="3" cy="3" r="3" transform="translate(1142 593)" fill="#ffdd46"/>
      <circle id="Ellipse_4-65" data-name="Ellipse 4" cx="3" cy="3" r="3" transform="translate(1159 593)" fill="#ffdd46"/>
      <circle id="Ellipse_4-66" data-name="Ellipse 4" cx="3" cy="3" r="3" transform="translate(1176 593)" fill="#ffdd46"/>
      <circle id="Ellipse_4-67" data-name="Ellipse 4" cx="3" cy="3" r="3" transform="translate(1193 593)" fill="#ffdd46"/>
      <circle id="Ellipse_4-68" data-name="Ellipse 4" cx="3" cy="3" r="3" transform="translate(1210 593)" fill="#ffdd46"/>
      <circle id="Ellipse_4-69" data-name="Ellipse 4" cx="3" cy="3" r="3" transform="translate(1227 593)" fill="#ffdd46"/>
      <circle id="Ellipse_4-70" data-name="Ellipse 4" cx="3" cy="3" r="3" transform="translate(1244 593)" fill="#ffdd46"/>
      <circle id="Ellipse_4-71" data-name="Ellipse 4" cx="3" cy="3" r="3" transform="translate(1261 593)" fill="#ffdd46"/>
      <circle id="Ellipse_4-72" data-name="Ellipse 4" cx="3" cy="3" r="3" transform="translate(1278 593)" fill="#ffdd46"/>
      <circle id="Ellipse_4-73" data-name="Ellipse 4" cx="3" cy="3" r="3" transform="translate(1295 593)" fill="#ffdd46"/>
      <circle id="Ellipse_4-74" data-name="Ellipse 4" cx="3" cy="3" r="3" transform="translate(1312 593)" fill="#ffdd46"/>
      <circle id="Ellipse_4-75" data-name="Ellipse 4" cx="3" cy="3" r="3" transform="translate(1329 593)" fill="#ffdd46"/>
      <circle id="Ellipse_4-76" data-name="Ellipse 4" cx="3" cy="3" r="3" transform="translate(1346 593)" fill="#ffdd46"/>
      <circle id="Ellipse_4-77" data-name="Ellipse 4" cx="3" cy="3" r="3" transform="translate(1363 593)" fill="#ffdd46"/>
      <circle id="Ellipse_4-78" data-name="Ellipse 4" cx="3" cy="3" r="3" transform="translate(1380 593)" fill="#ffdd46"/>
      <circle id="Ellipse_4-79" data-name="Ellipse 4" cx="3" cy="3" r="3" transform="translate(1397 593)" fill="#ffdd46"/>
      <circle id="Ellipse_4-80" data-name="Ellipse 4" cx="3" cy="3" r="3" transform="translate(1414 593)" fill="#ffdd46"/>
    </g>
  </g>
</svg>
