<svg xmlns="http://www.w3.org/2000/svg" xmlns:xlink="http://www.w3.org/1999/xlink" width="303" height="303" viewBox="0 0 303 303">
  <defs>
    <filter id="Rectangle_6" x="0" y="0" width="303" height="303" filterUnits="userSpaceOnUse">
      <feOffset dx="10" dy="20" input="SourceAlpha"/>
      <feGaussianBlur stdDeviation="28" result="blur"/>
      <feFlood flood-color="#ffd100" flood-opacity="0.102"/>
      <feComposite operator="in" in2="blur"/>
      <feComposite in="SourceGraphic"/>
    </filter>
  </defs>
  <g id="Group_4403" data-name="Group 4403" transform="translate(-302 -1741)">
    <g transform="matrix(1, 0, 0, 1, 302, 1741)" filter="url(#Rectangle_6)">
      <rect id="Rectangle_6-2" data-name="Rectangle 6" width="135" height="135" rx="26" transform="translate(74 64)" fill="#ffd100"/>
    </g>
    <g id="Group_4368" data-name="Group 4368" transform="translate(445.11 1775.594)" opacity="0.21">
      <circle id="Ellipse_4" data-name="Ellipse 4" cx="2.8" cy="2.8" r="2.8" transform="translate(84.923) rotate(90)" fill="#ffd100"/>
      <circle id="Ellipse_4-2" data-name="Ellipse 4" cx="2.8" cy="2.8" r="2.8" transform="translate(84.923 15.865) rotate(90)" fill="#ffd100"/>
      <circle id="Ellipse_4-3" data-name="Ellipse 4" cx="2.8" cy="2.8" r="2.8" transform="translate(84.923 31.73) rotate(90)" fill="#ffd100"/>
      <circle id="Ellipse_4-4" data-name="Ellipse 4" cx="2.8" cy="2.8" r="2.8" transform="translate(84.923 45.143) rotate(90)" fill="#ffd100"/>
      <circle id="Ellipse_4-5" data-name="Ellipse 4" cx="2.8" cy="2.8" r="2.8" transform="translate(84.923 60.191) rotate(90)" fill="#ffd100"/>
      <circle id="Ellipse_4-6" data-name="Ellipse 4" cx="2.8" cy="2.8" r="2.8" transform="translate(84.923 75.239) rotate(90)" fill="#ffd100"/>
      <circle id="Ellipse_4-7" data-name="Ellipse 4" cx="2.8" cy="2.8" r="2.8" transform="translate(84.923 90.286) rotate(90)" fill="#ffd100"/>
      <circle id="Ellipse_4-8" data-name="Ellipse 4" cx="2.8" cy="2.8" r="2.8" transform="translate(84.923 105.334) rotate(90)" fill="#ffd100"/>
      <circle id="Ellipse_4-9" data-name="Ellipse 4" cx="2.8" cy="2.8" r="2.8" transform="translate(84.923 120.382) rotate(90)" fill="#ffd100"/>
      <circle id="Ellipse_4-10" data-name="Ellipse 4" cx="2.8" cy="2.8" r="2.8" transform="translate(84.923 135.429) rotate(90)" fill="#ffd100"/>
      <circle id="Ellipse_4-11" data-name="Ellipse 4" cx="2.8" cy="2.8" r="2.8" transform="translate(84.923 148.843) rotate(90)" fill="#ffd100"/>
      <circle id="Ellipse_4-12" data-name="Ellipse 4" cx="2.8" cy="2.8" r="2.8" transform="translate(84.923 164.708) rotate(90)" fill="#ffd100"/>
      <circle id="Ellipse_4-13" data-name="Ellipse 4" cx="2.8" cy="2.8" r="2.8" transform="translate(84.923 180.572) rotate(90)" fill="#ffd100"/>
      <circle id="Ellipse_4-14" data-name="Ellipse 4" cx="2.8" cy="2.8" r="2.8" transform="translate(21.464) rotate(90)" fill="#ffd100"/>
      <circle id="Ellipse_4-15" data-name="Ellipse 4" cx="2.8" cy="2.8" r="2.8" transform="translate(21.464 15.865) rotate(90)" fill="#ffd100"/>
      <circle id="Ellipse_4-16" data-name="Ellipse 4" cx="2.8" cy="2.8" r="2.8" transform="translate(21.464 31.73) rotate(90)" fill="#ffd100"/>
      <circle id="Ellipse_4-17" data-name="Ellipse 4" cx="2.8" cy="2.8" r="2.8" transform="translate(21.464 45.143) rotate(90)" fill="#ffd100"/>
      <circle id="Ellipse_4-18" data-name="Ellipse 4" cx="2.8" cy="2.8" r="2.8" transform="translate(21.464 60.191) rotate(90)" fill="#ffd100"/>
      <circle id="Ellipse_4-19" data-name="Ellipse 4" cx="2.8" cy="2.8" r="2.8" transform="translate(21.464 75.239) rotate(90)" fill="#ffd100"/>
      <circle id="Ellipse_4-20" data-name="Ellipse 4" cx="2.8" cy="2.8" r="2.8" transform="translate(21.464 90.286) rotate(90)" fill="#ffd100"/>
      <circle id="Ellipse_4-21" data-name="Ellipse 4" cx="2.8" cy="2.8" r="2.8" transform="translate(69.059) rotate(90)" fill="#ffd100"/>
      <circle id="Ellipse_4-22" data-name="Ellipse 4" cx="2.8" cy="2.8" r="2.8" transform="translate(69.059 15.865) rotate(90)" fill="#ffd100"/>
      <circle id="Ellipse_4-23" data-name="Ellipse 4" cx="2.8" cy="2.8" r="2.8" transform="translate(69.059 31.73) rotate(90)" fill="#ffd100"/>
      <circle id="Ellipse_4-24" data-name="Ellipse 4" cx="2.8" cy="2.8" r="2.8" transform="translate(69.059 45.143) rotate(90)" fill="#ffd100"/>
      <circle id="Ellipse_4-25" data-name="Ellipse 4" cx="2.8" cy="2.8" r="2.8" transform="translate(69.059 60.191) rotate(90)" fill="#ffd100"/>
      <circle id="Ellipse_4-26" data-name="Ellipse 4" cx="2.8" cy="2.8" r="2.8" transform="translate(69.059 75.239) rotate(90)" fill="#ffd100"/>
      <circle id="Ellipse_4-27" data-name="Ellipse 4" cx="2.8" cy="2.8" r="2.8" transform="translate(69.059 90.286) rotate(90)" fill="#ffd100"/>
      <circle id="Ellipse_4-28" data-name="Ellipse 4" cx="2.8" cy="2.8" r="2.8" transform="translate(69.059 105.334) rotate(90)" fill="#ffd100"/>
      <circle id="Ellipse_4-29" data-name="Ellipse 4" cx="2.8" cy="2.8" r="2.8" transform="translate(69.059 120.382) rotate(90)" fill="#ffd100"/>
      <circle id="Ellipse_4-30" data-name="Ellipse 4" cx="2.8" cy="2.8" r="2.8" transform="translate(69.059 135.429) rotate(90)" fill="#ffd100"/>
      <circle id="Ellipse_4-31" data-name="Ellipse 4" cx="2.8" cy="2.8" r="2.8" transform="translate(69.059 148.843) rotate(90)" fill="#ffd100"/>
      <circle id="Ellipse_4-32" data-name="Ellipse 4" cx="2.8" cy="2.8" r="2.8" transform="translate(69.059 164.708) rotate(90)" fill="#ffd100"/>
      <circle id="Ellipse_4-33" data-name="Ellipse 4" cx="2.8" cy="2.8" r="2.8" transform="translate(69.059 180.572) rotate(90)" fill="#ffd100"/>
      <circle id="Ellipse_4-34" data-name="Ellipse 4" cx="2.8" cy="2.8" r="2.8" transform="translate(5.599) rotate(90)" fill="#ffd100"/>
      <circle id="Ellipse_4-35" data-name="Ellipse 4" cx="2.8" cy="2.8" r="2.8" transform="translate(5.599 15.865) rotate(90)" fill="#ffd100"/>
      <circle id="Ellipse_4-36" data-name="Ellipse 4" cx="2.8" cy="2.8" r="2.8" transform="translate(5.599 31.73) rotate(90)" fill="#ffd100"/>
      <circle id="Ellipse_4-37" data-name="Ellipse 4" cx="2.8" cy="2.8" r="2.8" transform="translate(5.599 45.143) rotate(90)" fill="#ffd100"/>
      <circle id="Ellipse_4-38" data-name="Ellipse 4" cx="2.8" cy="2.8" r="2.8" transform="translate(5.599 60.191) rotate(90)" fill="#ffd100"/>
      <circle id="Ellipse_4-39" data-name="Ellipse 4" cx="2.8" cy="2.8" r="2.8" transform="translate(5.599 75.239) rotate(90)" fill="#ffd100"/>
      <circle id="Ellipse_4-40" data-name="Ellipse 4" cx="2.8" cy="2.8" r="2.8" transform="translate(5.599 90.286) rotate(90)" fill="#ffd100"/>
      <circle id="Ellipse_4-41" data-name="Ellipse 4" cx="2.8" cy="2.8" r="2.8" transform="translate(53.194) rotate(90)" fill="#ffd100"/>
      <circle id="Ellipse_4-42" data-name="Ellipse 4" cx="2.8" cy="2.8" r="2.8" transform="translate(53.194 15.865) rotate(90)" fill="#ffd100"/>
      <circle id="Ellipse_4-43" data-name="Ellipse 4" cx="2.8" cy="2.8" r="2.8" transform="translate(53.194 31.73) rotate(90)" fill="#ffd100"/>
      <circle id="Ellipse_4-44" data-name="Ellipse 4" cx="2.8" cy="2.8" r="2.8" transform="translate(53.194 45.143) rotate(90)" fill="#ffd100"/>
      <circle id="Ellipse_4-45" data-name="Ellipse 4" cx="2.8" cy="2.8" r="2.8" transform="translate(53.194 60.191) rotate(90)" fill="#ffd100"/>
      <circle id="Ellipse_4-46" data-name="Ellipse 4" cx="2.8" cy="2.8" r="2.8" transform="translate(53.194 75.239) rotate(90)" fill="#ffd100"/>
      <circle id="Ellipse_4-47" data-name="Ellipse 4" cx="2.8" cy="2.8" r="2.8" transform="translate(53.194 90.286) rotate(90)" fill="#ffd100"/>
      <circle id="Ellipse_4-48" data-name="Ellipse 4" cx="2.8" cy="2.8" r="2.8" transform="translate(53.194 105.334) rotate(90)" fill="#ffd100"/>
      <circle id="Ellipse_4-49" data-name="Ellipse 4" cx="2.8" cy="2.8" r="2.8" transform="translate(53.194 120.382) rotate(90)" fill="#ffd100"/>
      <circle id="Ellipse_4-50" data-name="Ellipse 4" cx="2.8" cy="2.8" r="2.8" transform="translate(53.194 135.429) rotate(90)" fill="#ffd100"/>
      <circle id="Ellipse_4-51" data-name="Ellipse 4" cx="2.8" cy="2.8" r="2.8" transform="translate(53.194 148.843) rotate(90)" fill="#ffd100"/>
      <circle id="Ellipse_4-52" data-name="Ellipse 4" cx="2.8" cy="2.8" r="2.8" transform="translate(53.194 164.708) rotate(90)" fill="#ffd100"/>
      <circle id="Ellipse_4-53" data-name="Ellipse 4" cx="2.8" cy="2.8" r="2.8" transform="translate(53.194 180.572) rotate(90)" fill="#ffd100"/>
      <circle id="Ellipse_4-54" data-name="Ellipse 4" cx="2.8" cy="2.8" r="2.8" transform="translate(21.464 105.334) rotate(90)" fill="#ffd100"/>
      <circle id="Ellipse_4-55" data-name="Ellipse 4" cx="2.8" cy="2.8" r="2.8" transform="translate(21.464 120.382) rotate(90)" fill="#ffd100"/>
      <circle id="Ellipse_4-56" data-name="Ellipse 4" cx="2.8" cy="2.8" r="2.8" transform="translate(21.464 135.429) rotate(90)" fill="#ffd100"/>
      <circle id="Ellipse_4-57" data-name="Ellipse 4" cx="2.8" cy="2.8" r="2.8" transform="translate(21.464 148.843) rotate(90)" fill="#ffd100"/>
      <circle id="Ellipse_4-58" data-name="Ellipse 4" cx="2.8" cy="2.8" r="2.8" transform="translate(21.464 164.708) rotate(90)" fill="#ffd100"/>
      <circle id="Ellipse_4-59" data-name="Ellipse 4" cx="2.8" cy="2.8" r="2.8" transform="translate(21.464 180.572) rotate(90)" fill="#ffd100"/>
      <circle id="Ellipse_4-60" data-name="Ellipse 4" cx="2.8" cy="2.8" r="2.8" transform="translate(37.329) rotate(90)" fill="#ffd100"/>
      <circle id="Ellipse_4-61" data-name="Ellipse 4" cx="2.8" cy="2.8" r="2.8" transform="translate(37.329 15.865) rotate(90)" fill="#ffd100"/>
      <circle id="Ellipse_4-62" data-name="Ellipse 4" cx="2.8" cy="2.8" r="2.8" transform="translate(37.329 31.73) rotate(90)" fill="#ffd100"/>
      <circle id="Ellipse_4-63" data-name="Ellipse 4" cx="2.8" cy="2.8" r="2.8" transform="translate(37.329 45.143) rotate(90)" fill="#ffd100"/>
      <circle id="Ellipse_4-64" data-name="Ellipse 4" cx="2.8" cy="2.8" r="2.8" transform="translate(37.329 60.191) rotate(90)" fill="#ffd100"/>
      <circle id="Ellipse_4-65" data-name="Ellipse 4" cx="2.8" cy="2.8" r="2.8" transform="translate(37.329 75.239) rotate(90)" fill="#ffd100"/>
      <circle id="Ellipse_4-66" data-name="Ellipse 4" cx="2.8" cy="2.8" r="2.8" transform="translate(37.329 90.286) rotate(90)" fill="#ffd100"/>
      <circle id="Ellipse_4-67" data-name="Ellipse 4" cx="2.8" cy="2.8" r="2.8" transform="translate(37.329 105.334) rotate(90)" fill="#ffd100"/>
      <circle id="Ellipse_4-68" data-name="Ellipse 4" cx="2.8" cy="2.8" r="2.8" transform="translate(37.329 120.382) rotate(90)" fill="#ffd100"/>
      <circle id="Ellipse_4-69" data-name="Ellipse 4" cx="2.8" cy="2.8" r="2.8" transform="translate(37.329 135.429) rotate(90)" fill="#ffd100"/>
      <circle id="Ellipse_4-70" data-name="Ellipse 4" cx="2.8" cy="2.8" r="2.8" transform="translate(37.329 148.843) rotate(90)" fill="#ffd100"/>
      <circle id="Ellipse_4-71" data-name="Ellipse 4" cx="2.8" cy="2.8" r="2.8" transform="translate(37.329 164.708) rotate(90)" fill="#ffd100"/>
      <circle id="Ellipse_4-72" data-name="Ellipse 4" cx="2.8" cy="2.8" r="2.8" transform="translate(37.329 180.572) rotate(90)" fill="#ffd100"/>
      <circle id="Ellipse_4-73" data-name="Ellipse 4" cx="2.8" cy="2.8" r="2.8" transform="translate(5.599 105.334) rotate(90)" fill="#ffd100"/>
      <circle id="Ellipse_4-74" data-name="Ellipse 4" cx="2.8" cy="2.8" r="2.8" transform="translate(5.599 120.382) rotate(90)" fill="#ffd100"/>
      <circle id="Ellipse_4-75" data-name="Ellipse 4" cx="2.8" cy="2.8" r="2.8" transform="translate(5.599 135.429) rotate(90)" fill="#ffd100"/>
      <circle id="Ellipse_4-76" data-name="Ellipse 4" cx="2.8" cy="2.8" r="2.8" transform="translate(5.599 148.843) rotate(90)" fill="#ffd100"/>
      <circle id="Ellipse_4-77" data-name="Ellipse 4" cx="2.8" cy="2.8" r="2.8" transform="translate(5.599 164.708) rotate(90)" fill="#ffd100"/>
      <circle id="Ellipse_4-78" data-name="Ellipse 4" cx="2.8" cy="2.8" r="2.8" transform="translate(5.599 180.572) rotate(90)" fill="#ffd100"/>
    </g>
    <path id="Icon" d="M56.028,56.971H6V47.559a7.457,7.457,0,0,1,2.734-5.482,21.654,21.654,0,0,1,6.642-3.923,45.222,45.222,0,0,1,8.207-2.358,41.163,41.163,0,0,1,7.431-.787,41.159,41.159,0,0,1,7.43.787,45.223,45.223,0,0,1,8.207,2.358,21.653,21.653,0,0,1,6.642,3.923,7.457,7.457,0,0,1,2.734,5.482V56.97ZM31.014,41.283c-8.439,0-18.135,4.046-18.761,6.306V50.7H49.774V47.559c-.31-1.1-2.841-2.665-6.448-3.973A37.743,37.743,0,0,0,31.014,41.283ZM29.96,27.02A12.986,12.986,0,0,1,17,14.01a12.962,12.962,0,1,1,22.128,9.2A12.854,12.854,0,0,1,29.96,27.02ZM30.23,7a7.255,7.255,0,1,0,7.231,7.255A7.251,7.251,0,0,0,30.23,7Z" transform="translate(412.001 1840)" fill="#fff"/>
  </g>
</svg>
