<svg xmlns="http://www.w3.org/2000/svg" xmlns:xlink="http://www.w3.org/1999/xlink" width="290" height="290" viewBox="0 0 290 290">
  <defs>
    <filter id="Rectangle_6" x="0" y="0" width="290" height="290" filterUnits="userSpaceOnUse">
      <feOffset dx="10" dy="20" input="SourceAlpha"/>
      <feGaussianBlur stdDeviation="28" result="blur"/>
      <feFlood flood-color="#0d13d7" flood-opacity="0.102"/>
      <feComposite operator="in" in2="blur"/>
      <feComposite in="SourceGraphic"/>
    </filter>
  </defs>
  <g id="Group_4403" data-name="Group 4403" transform="translate(-825 -1765)">
    <g transform="matrix(1, 0, 0, 1, 825, 1765)" filter="url(#Rectangle_6)">
      <rect id="Rectangle_6-2" data-name="Rectangle 6" width="122" height="122" rx="26" transform="translate(74 64)" fill="#0d13d7"/>
    </g>
    <g id="Group_4368" data-name="Group 4368" transform="translate(961.395 1801.785)" opacity="0.1">
      <circle id="Ellipse_4" data-name="Ellipse 4" cx="2.553" cy="2.553" r="2.553" transform="translate(77.443 0) rotate(90)" fill="#0d13d7"/>
      <circle id="Ellipse_4-2" data-name="Ellipse 4" cx="2.553" cy="2.553" r="2.553" transform="translate(77.443 14.467) rotate(90)" fill="#0d13d7"/>
      <circle id="Ellipse_4-3" data-name="Ellipse 4" cx="2.553" cy="2.553" r="2.553" transform="translate(77.443 28.935) rotate(90)" fill="#0d13d7"/>
      <circle id="Ellipse_4-4" data-name="Ellipse 4" cx="2.553" cy="2.553" r="2.553" transform="translate(77.443 41.167) rotate(90)" fill="#0d13d7"/>
      <circle id="Ellipse_4-5" data-name="Ellipse 4" cx="2.553" cy="2.553" r="2.553" transform="translate(77.443 54.889) rotate(90)" fill="#0d13d7"/>
      <circle id="Ellipse_4-6" data-name="Ellipse 4" cx="2.553" cy="2.553" r="2.553" transform="translate(77.443 68.611) rotate(90)" fill="#0d13d7"/>
      <circle id="Ellipse_4-7" data-name="Ellipse 4" cx="2.553" cy="2.553" r="2.553" transform="translate(77.443 82.333) rotate(90)" fill="#0d13d7"/>
      <circle id="Ellipse_4-8" data-name="Ellipse 4" cx="2.553" cy="2.553" r="2.553" transform="translate(77.443 96.056) rotate(90)" fill="#0d13d7"/>
      <circle id="Ellipse_4-9" data-name="Ellipse 4" cx="2.553" cy="2.553" r="2.553" transform="translate(77.443 109.778) rotate(90)" fill="#0d13d7"/>
      <circle id="Ellipse_4-10" data-name="Ellipse 4" cx="2.553" cy="2.553" r="2.553" transform="translate(77.443 123.5) rotate(90)" fill="#0d13d7"/>
      <circle id="Ellipse_4-11" data-name="Ellipse 4" cx="2.553" cy="2.553" r="2.553" transform="translate(77.443 135.732) rotate(90)" fill="#0d13d7"/>
      <circle id="Ellipse_4-12" data-name="Ellipse 4" cx="2.553" cy="2.553" r="2.553" transform="translate(77.443 150.199) rotate(90)" fill="#0d13d7"/>
      <circle id="Ellipse_4-13" data-name="Ellipse 4" cx="2.553" cy="2.553" r="2.553" transform="translate(77.443 164.667) rotate(90)" fill="#0d13d7"/>
      <circle id="Ellipse_4-14" data-name="Ellipse 4" cx="2.553" cy="2.553" r="2.553" transform="translate(19.573 0) rotate(90)" fill="#0d13d7"/>
      <circle id="Ellipse_4-15" data-name="Ellipse 4" cx="2.553" cy="2.553" r="2.553" transform="translate(19.573 14.467) rotate(90)" fill="#0d13d7"/>
      <circle id="Ellipse_4-16" data-name="Ellipse 4" cx="2.553" cy="2.553" r="2.553" transform="translate(19.573 28.935) rotate(90)" fill="#0d13d7"/>
      <circle id="Ellipse_4-17" data-name="Ellipse 4" cx="2.553" cy="2.553" r="2.553" transform="translate(19.573 41.167) rotate(90)" fill="#0d13d7"/>
      <circle id="Ellipse_4-18" data-name="Ellipse 4" cx="2.553" cy="2.553" r="2.553" transform="translate(19.573 54.889) rotate(90)" fill="#0d13d7"/>
      <circle id="Ellipse_4-19" data-name="Ellipse 4" cx="2.553" cy="2.553" r="2.553" transform="translate(19.573 68.611) rotate(90)" fill="#0d13d7"/>
      <circle id="Ellipse_4-20" data-name="Ellipse 4" cx="2.553" cy="2.553" r="2.553" transform="translate(19.573 82.333) rotate(90)" fill="#0d13d7"/>
      <circle id="Ellipse_4-21" data-name="Ellipse 4" cx="2.553" cy="2.553" r="2.553" transform="translate(62.976 0) rotate(90)" fill="#0d13d7"/>
      <circle id="Ellipse_4-22" data-name="Ellipse 4" cx="2.553" cy="2.553" r="2.553" transform="translate(62.976 14.467) rotate(90)" fill="#0d13d7"/>
      <circle id="Ellipse_4-23" data-name="Ellipse 4" cx="2.553" cy="2.553" r="2.553" transform="translate(62.976 28.935) rotate(90)" fill="#0d13d7"/>
      <circle id="Ellipse_4-24" data-name="Ellipse 4" cx="2.553" cy="2.553" r="2.553" transform="translate(62.976 41.167) rotate(90)" fill="#0d13d7"/>
      <circle id="Ellipse_4-25" data-name="Ellipse 4" cx="2.553" cy="2.553" r="2.553" transform="translate(62.976 54.889) rotate(90)" fill="#0d13d7"/>
      <circle id="Ellipse_4-26" data-name="Ellipse 4" cx="2.553" cy="2.553" r="2.553" transform="translate(62.976 68.611) rotate(90)" fill="#0d13d7"/>
      <circle id="Ellipse_4-27" data-name="Ellipse 4" cx="2.553" cy="2.553" r="2.553" transform="translate(62.976 82.333) rotate(90)" fill="#0d13d7"/>
      <circle id="Ellipse_4-28" data-name="Ellipse 4" cx="2.553" cy="2.553" r="2.553" transform="translate(62.976 96.056) rotate(90)" fill="#0d13d7"/>
      <circle id="Ellipse_4-29" data-name="Ellipse 4" cx="2.553" cy="2.553" r="2.553" transform="translate(62.976 109.778) rotate(90)" fill="#0d13d7"/>
      <circle id="Ellipse_4-30" data-name="Ellipse 4" cx="2.553" cy="2.553" r="2.553" transform="translate(62.976 123.5) rotate(90)" fill="#0d13d7"/>
      <circle id="Ellipse_4-31" data-name="Ellipse 4" cx="2.553" cy="2.553" r="2.553" transform="translate(62.976 135.732) rotate(90)" fill="#0d13d7"/>
      <circle id="Ellipse_4-32" data-name="Ellipse 4" cx="2.553" cy="2.553" r="2.553" transform="translate(62.976 150.199) rotate(90)" fill="#0d13d7"/>
      <circle id="Ellipse_4-33" data-name="Ellipse 4" cx="2.553" cy="2.553" r="2.553" transform="translate(62.976 164.667) rotate(90)" fill="#0d13d7"/>
      <circle id="Ellipse_4-34" data-name="Ellipse 4" cx="2.553" cy="2.553" r="2.553" transform="translate(5.106 0) rotate(90)" fill="#0d13d7"/>
      <circle id="Ellipse_4-35" data-name="Ellipse 4" cx="2.553" cy="2.553" r="2.553" transform="translate(5.106 14.467) rotate(90)" fill="#0d13d7"/>
      <circle id="Ellipse_4-36" data-name="Ellipse 4" cx="2.553" cy="2.553" r="2.553" transform="translate(5.106 28.935) rotate(90)" fill="#0d13d7"/>
      <circle id="Ellipse_4-37" data-name="Ellipse 4" cx="2.553" cy="2.553" r="2.553" transform="translate(5.106 41.167) rotate(90)" fill="#0d13d7"/>
      <circle id="Ellipse_4-38" data-name="Ellipse 4" cx="2.553" cy="2.553" r="2.553" transform="translate(5.106 54.889) rotate(90)" fill="#0d13d7"/>
      <circle id="Ellipse_4-39" data-name="Ellipse 4" cx="2.553" cy="2.553" r="2.553" transform="translate(5.106 68.611) rotate(90)" fill="#0d13d7"/>
      <circle id="Ellipse_4-40" data-name="Ellipse 4" cx="2.553" cy="2.553" r="2.553" transform="translate(5.106 82.333) rotate(90)" fill="#0d13d7"/>
      <circle id="Ellipse_4-41" data-name="Ellipse 4" cx="2.553" cy="2.553" r="2.553" transform="translate(48.508 0) rotate(90)" fill="#0d13d7"/>
      <circle id="Ellipse_4-42" data-name="Ellipse 4" cx="2.553" cy="2.553" r="2.553" transform="translate(48.508 14.467) rotate(90)" fill="#0d13d7"/>
      <circle id="Ellipse_4-43" data-name="Ellipse 4" cx="2.553" cy="2.553" r="2.553" transform="translate(48.508 28.935) rotate(90)" fill="#0d13d7"/>
      <circle id="Ellipse_4-44" data-name="Ellipse 4" cx="2.553" cy="2.553" r="2.553" transform="translate(48.508 41.167) rotate(90)" fill="#0d13d7"/>
      <circle id="Ellipse_4-45" data-name="Ellipse 4" cx="2.553" cy="2.553" r="2.553" transform="translate(48.508 54.889) rotate(90)" fill="#0d13d7"/>
      <circle id="Ellipse_4-46" data-name="Ellipse 4" cx="2.553" cy="2.553" r="2.553" transform="translate(48.508 68.611) rotate(90)" fill="#0d13d7"/>
      <circle id="Ellipse_4-47" data-name="Ellipse 4" cx="2.553" cy="2.553" r="2.553" transform="translate(48.508 82.333) rotate(90)" fill="#0d13d7"/>
      <circle id="Ellipse_4-48" data-name="Ellipse 4" cx="2.553" cy="2.553" r="2.553" transform="translate(48.508 96.056) rotate(90)" fill="#0d13d7"/>
      <circle id="Ellipse_4-49" data-name="Ellipse 4" cx="2.553" cy="2.553" r="2.553" transform="translate(48.508 109.778) rotate(90)" fill="#0d13d7"/>
      <circle id="Ellipse_4-50" data-name="Ellipse 4" cx="2.553" cy="2.553" r="2.553" transform="translate(48.508 123.5) rotate(90)" fill="#0d13d7"/>
      <circle id="Ellipse_4-51" data-name="Ellipse 4" cx="2.553" cy="2.553" r="2.553" transform="translate(48.508 135.732) rotate(90)" fill="#0d13d7"/>
      <circle id="Ellipse_4-52" data-name="Ellipse 4" cx="2.553" cy="2.553" r="2.553" transform="translate(48.508 150.199) rotate(90)" fill="#0d13d7"/>
      <circle id="Ellipse_4-53" data-name="Ellipse 4" cx="2.553" cy="2.553" r="2.553" transform="translate(48.508 164.667) rotate(90)" fill="#0d13d7"/>
      <circle id="Ellipse_4-54" data-name="Ellipse 4" cx="2.553" cy="2.553" r="2.553" transform="translate(19.573 96.056) rotate(90)" fill="#0d13d7"/>
      <circle id="Ellipse_4-55" data-name="Ellipse 4" cx="2.553" cy="2.553" r="2.553" transform="translate(19.573 109.778) rotate(90)" fill="#0d13d7"/>
      <circle id="Ellipse_4-56" data-name="Ellipse 4" cx="2.553" cy="2.553" r="2.553" transform="translate(19.573 123.5) rotate(90)" fill="#0d13d7"/>
      <circle id="Ellipse_4-57" data-name="Ellipse 4" cx="2.553" cy="2.553" r="2.553" transform="translate(19.573 135.732) rotate(90)" fill="#0d13d7"/>
      <circle id="Ellipse_4-58" data-name="Ellipse 4" cx="2.553" cy="2.553" r="2.553" transform="translate(19.573 150.199) rotate(90)" fill="#0d13d7"/>
      <circle id="Ellipse_4-59" data-name="Ellipse 4" cx="2.553" cy="2.553" r="2.553" transform="translate(19.573 164.667) rotate(90)" fill="#0d13d7"/>
      <circle id="Ellipse_4-60" data-name="Ellipse 4" cx="2.553" cy="2.553" r="2.553" transform="translate(34.041 0) rotate(90)" fill="#0d13d7"/>
      <circle id="Ellipse_4-61" data-name="Ellipse 4" cx="2.553" cy="2.553" r="2.553" transform="translate(34.041 14.467) rotate(90)" fill="#0d13d7"/>
      <circle id="Ellipse_4-62" data-name="Ellipse 4" cx="2.553" cy="2.553" r="2.553" transform="translate(34.041 28.935) rotate(90)" fill="#0d13d7"/>
      <circle id="Ellipse_4-63" data-name="Ellipse 4" cx="2.553" cy="2.553" r="2.553" transform="translate(34.041 41.167) rotate(90)" fill="#0d13d7"/>
      <circle id="Ellipse_4-64" data-name="Ellipse 4" cx="2.553" cy="2.553" r="2.553" transform="translate(34.041 54.889) rotate(90)" fill="#0d13d7"/>
      <circle id="Ellipse_4-65" data-name="Ellipse 4" cx="2.553" cy="2.553" r="2.553" transform="translate(34.041 68.611) rotate(90)" fill="#0d13d7"/>
      <circle id="Ellipse_4-66" data-name="Ellipse 4" cx="2.553" cy="2.553" r="2.553" transform="translate(34.041 82.333) rotate(90)" fill="#0d13d7"/>
      <circle id="Ellipse_4-67" data-name="Ellipse 4" cx="2.553" cy="2.553" r="2.553" transform="translate(34.041 96.056) rotate(90)" fill="#0d13d7"/>
      <circle id="Ellipse_4-68" data-name="Ellipse 4" cx="2.553" cy="2.553" r="2.553" transform="translate(34.041 109.778) rotate(90)" fill="#0d13d7"/>
      <circle id="Ellipse_4-69" data-name="Ellipse 4" cx="2.553" cy="2.553" r="2.553" transform="translate(34.041 123.5) rotate(90)" fill="#0d13d7"/>
      <circle id="Ellipse_4-70" data-name="Ellipse 4" cx="2.553" cy="2.553" r="2.553" transform="translate(34.041 135.732) rotate(90)" fill="#0d13d7"/>
      <circle id="Ellipse_4-71" data-name="Ellipse 4" cx="2.553" cy="2.553" r="2.553" transform="translate(34.041 150.199) rotate(90)" fill="#0d13d7"/>
      <circle id="Ellipse_4-72" data-name="Ellipse 4" cx="2.553" cy="2.553" r="2.553" transform="translate(34.041 164.667) rotate(90)" fill="#0d13d7"/>
      <circle id="Ellipse_4-73" data-name="Ellipse 4" cx="2.553" cy="2.553" r="2.553" transform="translate(5.106 96.056) rotate(90)" fill="#0d13d7"/>
      <circle id="Ellipse_4-74" data-name="Ellipse 4" cx="2.553" cy="2.553" r="2.553" transform="translate(5.106 109.778) rotate(90)" fill="#0d13d7"/>
      <circle id="Ellipse_4-75" data-name="Ellipse 4" cx="2.553" cy="2.553" r="2.553" transform="translate(5.106 123.5) rotate(90)" fill="#0d13d7"/>
      <circle id="Ellipse_4-76" data-name="Ellipse 4" cx="2.553" cy="2.553" r="2.553" transform="translate(5.106 135.732) rotate(90)" fill="#0d13d7"/>
      <circle id="Ellipse_4-77" data-name="Ellipse 4" cx="2.553" cy="2.553" r="2.553" transform="translate(5.106 150.199) rotate(90)" fill="#0d13d7"/>
      <circle id="Ellipse_4-78" data-name="Ellipse 4" cx="2.553" cy="2.553" r="2.553" transform="translate(5.106 164.667) rotate(90)" fill="#0d13d7"/>
    </g>
    <g id="Group_367" data-name="Group 367" transform="translate(932.886 1863.484)">
      <g id="Group_213" data-name="Group 213" transform="translate(0 9.115)">
        <path id="Path_488" data-name="Path 488" d="M199.768,271.008l-1.122.168c-13.623,2-28.848-.007-39.265-5.449l-.881-.457,7.052-18.431,41.669,5.689Z" transform="translate(-155.988 -244)" fill="#d9d9d9"/>
        <path id="Path_489" data-name="Path 489" d="M158.6,266.206a1.915,1.915,0,0,1-1.122-2.324l6.25-16.828c.537-1.282,2.564-2,4.487-1.683l39.265,6.891c1.923.345,3.125,1.6,2.564,2.885l-7.853,18.431a3.446,3.446,0,0,1-2.8,1.683l-1.122.144c-7.195.922-11.709,1.472-21.625-.828A54.753,54.753,0,0,1,158.6,266.206Zm5.689-.312c8.815,4.648,20.835,6.411,32.854,4.808l5.449-15.225-32.854-4.808Z" transform="translate(-157.366 -245.295)" fill="#d9d9d9"/>
      </g>
      <rect id="Rectangle_2414" data-name="Rectangle 2414" width="3.404" height="33.19" rx="1.702" transform="translate(51.321 20.424)" fill="#cbcbcb"/>
      <g id="Group_214" data-name="Group 214" transform="translate(0.062)">
        <path id="Path_490" data-name="Path 490" d="M184.252,242,153,245.526l24.841,18.431,31.252-3.526Z" transform="translate(-150.15 -238.731)" fill="#fff"/>
        <path id="Path_491" data-name="Path 491" d="M178.333,267.229a2.725,2.725,0,0,1-.962-.449L152.53,248.35a2.725,2.725,0,0,1,1.362-4.888l31.252-3.526a2.724,2.724,0,0,1,1.923.529l24.841,18.43a2.725,2.725,0,0,1-1.362,4.888l-31.252,3.526a2.725,2.725,0,0,1-1.042-.078ZM161.505,248l18.431,13.623,23.238-2.644-18.431-13.623Z" transform="translate(-151.443 -239.921)" fill="#fff"/>
      </g>
    </g>
  </g>
</svg>
