<?xml version="1.0" encoding="UTF-8"?><svg version="1" viewBox="0 0 1401 1482" xmlns="http://www.w3.org/2000/svg"><path d="M637 0c-51 2-103 14-154 36l-5 66c-22 10-43 21-64 33l-53-34c-43 28-82 63-115 108l25 52c-16 20-30 40-43 61l-61-8c-27 43-47 92-58 147l46 38c-5 21-8 43-11 65l-59 25c-2 51 4 152 25 203 28 34 66-53 86-84l28-44a487 487 0 0 1 446-524 485 485 0 0 1 509 529l45 71c5 3 41 86 69 52 21-51 27-152 25-203l-59-25-11-65 46-38c-12-55-31-103-59-147l-60 8c-13-22-28-43-44-63l23-50c-33-45-72-80-115-108l-52 33c-21-12-42-24-64-33l-6-65C866 14 814 2 763 0l-28 55c-23-2-46-1-69 0z" stroke="#000"/><g stroke="#000"><path d="M672 602c6 36 57 37 63-2l39-243c34-208-175-213-141 0z" stroke-width="1.48"/><path d="M695 597c2 14 15 14 18 0l38-237c27-172-115-194-94 0z" fill="#fff" stroke-width="1.48"/><g fill="none"><path d="M1555 378c3 24 38 25 42-2l28-164c24-145-111-147-92-2z" fill="#000" transform="matrix(1.335 .542 -.555 1.302 -1123 -727)"/><path d="M1570 374c1 10 10 10 12 0l27-160c22-117-76-133-61-2z" fill="#fff" transform="matrix(1.335 .542 -.555 1.302 -1123 -727)"/><path d="M1555 378c3 24 38 25 42-2l28-164c24-145-111-147-92-2z" fill="#000" transform="matrix(-1.335 .542 .555 1.302 2531 -727)"/><path d="M1570 374c1 10 10 10 12 0l27-160c22-117-76-133-61-2z" fill="#fff" transform="matrix(-1.335 .542 .555 1.302 2531 -727)"/><path d="M1555 378c3 24 38 30 43 3l29-167c26-145-114-155-94-4z" fill="#000" transform="matrix(-.926 .884 .92 .858 1701 -1052)"/><path d="M1570 374c1 10 10 10 12 0l27-160c22-117-76-133-61-2z" fill="#fff" transform="matrix(-.926 .884 .92 .858 1701 -1052)"/><path d="M1555 378c3 24 39 25 42-2l24-165c22-157-102-147-85-1z" fill="#000" transform="matrix(-.425 1.01 .999 .367 857 -1017)"/><path d="M1572 370c1 10 7 12 8 1l21-159c21-117-59-130-45 2z" fill="#fff" transform="matrix(-.425 1.01 .999 .367 857 -1017)"/><g><path d="M1555 378c6 24 44 25 46-2 6-57 8-114 18-164 28-148-110-150-90 4 7 55 12 109 26 162z" fill="#000" transform="matrix(-.04455 .95608 .92796 .00101 282 -738)"/><path d="M1573 366c2 10 8 7 7-3-2-52 7-95 16-147 21-117-58-123-44 2 4 54 11 103 21 148z" fill="#fff" transform="matrix(-.04455 .95608 .92796 .00101 282 -738)"/></g><g><path d="M1555 378c3 24 38 30 43 3l29-167c26-145-114-155-94-4z" fill="#000" transform="matrix(.926 .884 -.92 .858 -297 -1052)"/><path d="M1570 374c1 10 10 10 12 0l27-160c22-117-76-133-61-2z" fill="#fff" transform="matrix(.926 .884 -.92 .858 -297 -1052)"/></g><g><path d="M1555 378c3 24 39 25 42-2l24-165c22-157-102-147-85-1z" fill="#000" transform="matrix(.425 1.01 -.999 .367 547 -1017)"/><path d="M1572 370c1 10 7 12 8 1l21-159c21-117-59-130-45 2z" fill="#fff" transform="matrix(.425 1.01 -.999 .367 547 -1017)"/></g><g><path d="M1555 378c6 24 44 25 46-2 6-57 8-114 18-164 28-148-110-150-90 4 7 55 12 109 26 162z" fill="#000" transform="matrix(.04455 .95608 -.92796 .00101 1122 -738)"/><path d="M1573 366c2 10 8 7 7-3-2-52 7-95 16-147 21-117-58-123-44 2 4 54 11 103 21 148z" fill="#fff" transform="matrix(.04455 .95608 -.92796 .00101 1122 -738)"/></g></g></g><path d="M702 648c-58 0-107 55-108 124 43 14 73 53 98 105h22c17-53 53-84 96-105-2-67-48-122-105-124h-3zm0 19h2c49 2 85 46 87 93-37 17-67 51-88 90-28-49-45-67-90-90 0-42 40-93 89-93z" stroke="#000" stroke-linecap="round" stroke-linejoin="bevel" stroke-width="4.4399999999999995"/><g fill="#fff"><path d="M394 845c-62 27-33 63 2 41 173-62 259 24 248 98-3 34-24 48-8 60 39 12 96-154-49-201-78-21-141-17-194 3z" stroke="#000" stroke-width="37"/><path d="M394 845c-62 27-33 63 2 41 173-62 259 24 248 98-3 34-24 48-8 60 39 12 96-154-49-201-78-21-141-17-194 3z"/><path d="M1008 845c63 27 33 63-1 41-173-62-259 24-249 98 4 34 24 48 9 60-39 12-97-154 48-201 78-21 141-17 194 3z" stroke="#000" stroke-width="37"/><path d="M1008 845c63 27 33 63-1 41-173-62-259 24-249 98 4 34 24 48 9 60-39 12-97-154 48-201 78-21 141-17 194 3z"/></g><path d="M221 755c-3 0-8 3-15 10-27 30-21 67-53 95-20 7-40 14-57 25a152 152 0 0 0 55 292c21 0 41-4 59-12l-7 25c-22 97 38 193 134 215 72 17 144-14 184-72 17 95 105 160 197 146 83-12 143-85 146-169l5 9c54 89 165 118 248 64 71-46 98-138 70-220a151 151 0 0 0 118-278c-17-11-36-17-56-25-33-28-26-65-54-95-6-7-11-10-14-10-9-1-8 16-8 21-4 43-4 84-20 105-22 30-32 53-42 87v1a150 150 0 0 0 30 161 16 15 0 0 0 3 10c45 75 26 171-43 216a148 148 0 0 1-215-68c8 3 15-1 12-19-25-145 141-204 213-116 6 6 36 28 23-11-14-40-44-72-76-97 8-32 12-62 6-94-6-31-19-15-22-6-75 179-196 131-184 305a16 15 0 0 0-7 2c-72-156-193-67-333-199-6-6-24-18-16 13s44 70 64 95c-16 37-16 68-11 110 5 40 20 9 22 1 28-112 202-106 237 23 3 10 12 16 21 19-4 68-54 126-122 136-79 12-153-45-165-127-3-21-2-42 3-62a15 14 0 0 0-10-18c8-166-111-121-184-298-3-9-16-25-22 6-6 32-2 62 6 94-32 25-62 57-76 97-13 39 17 17 22 11 73-88 238-29 213 116-3 17 5 21 12 20-27 66-98 105-169 88-79-19-130-99-111-180 5-20 14-40 26-56a15 15 0 0 0 3-10 150 150 0 0 0 31-163c-10-34-21-57-43-87-15-21-15-62-19-105-1-5 0-22-8-21zm-73 154h3c65 0 117 52 117 117s-52 117-117 117a117 117 0 1 1-3-234zm1102 0h3a117 117 0 0 1-3 234c-64 0-117-52-117-117s52-117 117-117zm-365 136c-4 0-9 4-12 7-54 50-104 68-150 80 49 14 94 46 114 69-2-13-6-26-13-41 20-24 56-63 64-95 5-16 2-20-3-20z" color="#000" style="text-decoration-line:none;text-indent:0;text-transform:none"/><g><path d="M462 976l-2 21c-1 12-4 19-8 19-2 0-3-1-4-3l-1-11a513 513 0 0 0-9-47l-5-11-3-6 7-12c4-8 7-12 8-12l6 6 7 21c2 10 4 22 4 35zM556 922c0 9-2 17-6 23-3 7-9 11-15 11-4 0-8-1-10-4-2 2-5 4-9 5l1 21c0 7 0 14-2 22-2 11-5 16-9 16-3 0-5-4-6-11l-1-13-2-19-7-19-7-10-3-5 5-11 7-13c1-2 2-2 3-2l2 2c5 8 9 12 14 12 4 0 6-1 8-3l2-7c1-2 2-3 4-3s3 1 4 3l2 7c1 2 3 3 6 3s5-1 7-3l2-7 4-3c4 0 6 3 6 8zM908 923c0 10-2 18-5 24-4 7-9 10-16 10-4 0-7-1-10-3l-9 5a110 110 0 0 1-1 43c-2 10-5 15-8 15s-5-3-6-10l-2-14-2-18c-1-7-4-14-7-20l-6-10-3-5 5-11 7-13 2-2 3 3c4 8 9 11 14 11 4 0 6-1 8-3l2-6c1-2 2-4 4-4s3 2 4 4l2 6c1 3 3 4 6 4s5-1 6-4l3-6c1-3 2-4 4-4 3 0 5 3 5 9zM991 945l-3 4-8 9c-8 12-14 25-18 41l-3 14c-1 3-3 5-5 5s-3-2-5-5l-3-14c-5-18-11-34-20-47l-6-10a338 338 0 0 1 10-28l2 2a111 111 0 0 1 22 47c6-19 15-35 28-48l2-1 2 4 5 27z"/></g></svg>