<svg baseProfile="tiny" xmlns="http://www.w3.org/2000/svg" viewBox="0 0 800 800"><path d="M385 740l-1 2-1-2c0-10-2-18-4-26l-10-17 4-8 1-2 2 2c3 5 6 11 8 18l3 20-2 13zM440 691l-2 10c-1 4-3 6-7 6-3 0-6-1-8-4-2 3-5 5-9 5 2 6 3 12 3 19l-2 13-1 1-1-1c0-16-5-30-13-42l3-10h2l6 7c1 1 2 2 5 2s6-2 8-7l2-4c1 0 2 2 1 4l2 4 5 1 3-4 2-3 1 3zM481 691l-2 10c-1 4-3 6-7 6-3 0-6-1-8-4-2 3-5 5-9 5 2 6 3 12 3 19l-2 13-1 1-1-1c0-16-5-30-13-42l3-10h2l6 7c1 1 2 2 5 2s6-2 8-7l2-4c1 0 2 2 1 4l2 4 5 1 3-4 2-3 1 3zM482 732c5-5 9-13 12-22a486 486 0 007-22l2 5c4 16 10 29 18 38l-3 8v2l-2-2c-7-9-12-20-15-33v-1l-1 2a78 78 0 01-17 35l-1-10z"/><path d="M768 32H32v736h736V32zm-12 724H44V44h712v712z"/><path d="M800 0H0v800h800V0zm-20 780H20V20h760v760z"/><path d="M610 193s-18 25 5 54c20 26 63 58 76 66 25 17-80 78-115 78-32 0-11-59-15-59-7 0-27 82-7 96 38 24 164-62 166-116 2-26-43-46-62-66l-1-12c-30-17-47-41-47-41M624 133s-18 17-25 31c18 6 28 26 28 26s20-20 20-30c-1-12-23-27-23-27"/><path d="M669 128s-16 17-24 31c18 6 27 26 27 26s20-20 20-29c0-13-23-28-23-28M643 87s-9 0-26 34c18 6 30 24 30 24s18-21 18-31c0-12-22-27-22-27M430 192s-18 16-25 30c18 6 28 26 28 26s20-19 20-29c0-13-23-27-23-27"/><path d="M476 187s-17 16-24 30c18 6 26 26 26 26s20-19 20-29c0-12-22-27-22-27M448 146s-9 0-25 34c18 6 30 24 30 24s18-21 18-31c0-13-23-27-23-27M504 124s-14 19-26 31c18 6 30 28 30 28s20-21 20-31c0-13-24-28-24-28M668 682s-16 16-24 30c18 6 28 26 28 26s18-19 18-29c1-13-22-27-22-27M331 687s-16 17-23 30c17 6 27 26 27 26s19-19 19-29c0-13-23-27-23-27M389 547s-16 16-23 30c18 6 28 20 28 20s17-17 17-27c0-12-22-23-22-23M344 551s-15 15-22 28c17 6 27 20 27 20s16-14 16-23c0-12-21-25-21-25M362 516s-14 14-21 26c16 6 25 20 25 20s15-17 15-26c1-11-19-20-19-20M285 689s-16 17-24 30c18 6 28 26 28 26s18-19 18-29c1-13-22-27-22-27M156 108s-17 17-24 31c18 6 28 25 28 25s18-19 18-29c0-12-22-27-22-27"/><path d="M159 162s-16 17-24 31c18 5 28 25 28 25s18-19 18-29c0-13-22-27-22-27M572 193c0-9 8-19 8-33 0-38-17-12-17-103-6 0-17 31-18 42-10 75 26 173 27 268 1 13 17-24 17-51 1-32-17-108-17-123M524 232c-27 53 4 100 4 110 0 16-26 23-29-4-39 45-33 3-33 3-75 54-64 1-64 1-94 47-123 41-132 38s-7-17-7-17c124 0 132-65 132-91 0-36-78-51-113-87-19-18 135-91 177-91 28-1 14 14 6 46 39-49 25-78 0-78-5 0-201 43-201 133 0 46 113 81 113 93 0 14-63 35-90 35-35 0-32-43-37-96-5-68-14-158-23-160-28 52 6 109 6 248 0 22 7 34 13 41 0 52 16 67 36 67 46 0 98-35 98-35 22 41 59-2 59-2 24 28 51-8 51-8 32 43 66-31 46-77-3-8 5-23 5-25-1-12-5-5-17-44"/><path d="M500 427c-6 0-27 53-23 56 43-15 33-47 23-56m15 127c-1-9-19-41-44-29 2 22 11 30 44 29m127-41c-21 13-64 33-61-18l-59 14c13 38-8 75-12 76-9 1-54 6-53-56-4 0-16 3-25 3-10 0-27-7-25-32-35 12-87 28-122 28-21 0-56 3-67-52-5 22-48 76-103 76-44 0-32-87-4-120-56 153 98 39 98 8 0-24-2-43-17-90-3-9 0-34 11-52 34 103 27 190 67 190 7 0 27 9 148-31 0 0-4 53 47 31 6-19 25-78 43-111 0 0 23 50 5 100 9-1 35-6 82-23 0 5-4 69 63 17-4 27 19 16 28 10s-6-27-6-35c0-9 14-36 14-36 46 98-57 143-52 103M267 132c0-35 108-79 117-79 19 0 4 47 4 47s0-28-9-28c-5 0-69 25-112 60"/><path d="M587 695c-4-20-22-32-46-32 0 0 6 34 46 32m-14-138c-2-3-20 35-23 59 40-11 30-49 23-59m25 89c12 51-3 80-33 80-55 0-36-63-36-63s-27 4-39-16c0 0-50 34-56 1 0 0-47 40-56-9 0 1-52 41-83 20-25-18-15-68-22-70-30-11-52 30-52 32 0 10 59 11 59 35 0 54-109 91-148 91-85 0-33-179-10-185-56 138 11 143 14 143 51 0 112-30 112-32 0-10-42-3-42-26 0-66 50-98 69-98 12 0 20 14 20 14-7 124 98 33 98 33-9 61 60 6 60 6 5 46 53-2 53-2-5 31 30 20 30 20 13-43 44-117 47-112 3 4 18 73 2 102l-2 4c49-4 104-15 119-28 3-3-1-14-1-22 0-13 13-29 17-29 21 114-75 101-120 111M126 382c8 8 35 0 36-4 3-12-24-34-35-43-5 10-10 38-1 47m16-77c13 12 38 29 38 49 0 11-5 67-58 67-23 0-19-50-2-91-25-19-35-21-40-40-2-8-3-30 0-30 5 2 54 40 54 40 7-14 17-29 23-30 6 0-11 26-15 35"/></svg>