<?xml version="1.0" encoding="UTF-8"?>
<svg version="1" viewBox="0 0 1254 1742" xmlns="http://www.w3.org/2000/svg"><path d="m241 7-6 27-19 82-7 30-5 24c-4 18-3 16-23 49l-31 52-67 115-8 13 90 88v15c0 13 0 15 2 17s11 2 105 2h102v-40l42-41 41-41-27-46-53-89-35-60c-10-17-10-16-20-62l-10-44-9-42-9-39-4-17h-48zm18 153v146l-6 2c-13 4-26 16-30 29-4 10-3 29 1 37 5 9 15 19 23 23 7 3 9 3 20 3s14 0 20-3c11-5 18-12 23-22 4-8 5-10 5-22 0-11-1-13-4-20-6-13-21-24-32-26l-5-1v-146c0-113 0-146 2-145l5 20a1197 1197 0 0 0 14 66l8 35 10 42 4 18 21 36 30 50 38 65 29 50-76 76h-185l-39-38-38-38 17-30 39-66 22-37c36-60 40-68 41-73a2858 2858 0 0 0 30-132c8-36 10-44 13-45zm17 160c19 6 30 26 24 44-3 9-12 19-22 22-27 9-53-20-42-46 5-10 12-16 24-20 7-2 8-2 16 0zm82 179v9h-177v-18h177zm222-197-20 8a315 315 0 0 0-104 59l-6 5 6 8 6 9 8-7a287 287 0 0 1 109-56c5 0 50 26 146 86 101 63 121 76 157 105 30 24 46 39 83 76 56 56 91 99 129 159 27 42 57 98 69 126 19 44 26 84 26 136-1 64-11 111-34 157-16 33-33 56-66 90-18 18-22 23-26 31-5 10-9 28-8 33 3 17 3 18 8 21 6 2 8 1 13-12 5-10 5-11 17-19l14-11a321 321 0 0 0 141-232c10-61 7-108-9-158-10-29-24-58-57-120-25-44-35-62-57-90-32-43-55-69-106-120-90-89-150-136-259-198-58-33-108-59-148-77l-25-11z"/><path d="m560 349c-36 12-60 25-77 42l-8 7 5 6 6 5 14-11c16-12 40-25 66-33l19-8c3-2 3-8 0-11-4-3-9-3-25 3zm-137 100-41 41v31h17v-13l1-13 32-32 38-37 5-6-6-6-5-6zm271 13c-2 2-2 3 0 3 5-2 68 44 111 81 27 22 83 79 104 104 42 51 74 98 98 148 23 47 40 97 45 134a343 343 0 0 1-38 208c0 2 13 3 29 3 11 0 17-1 26-3 11-3 14-4 22-10 8-7 10-9 16-21a272 272 0 0 0 16-190 723 723 0 0 0-242-335 1261 1261 0 0 0-187-122zm-557 491v419l-22 22 84 84 43-43v-901h-105z"/><path d="m247 986v452l-44 44 4 3 3 4 48-47v-908h-11z"/><path d="m281 993v458l-80 80-16-16 16-17-3-3-4-3-24 23 15 16 15 15 91-91v-921h-10z"/><path d="m297 996v462l-49 48-48 48-19-18c-11-10-19-19-19-20l14-15 14-14-83-83-54 53-53 53 93 93c50 52 102 104 115 116l22 23 88-88 87-88-1-33h-30v-145h29v-854h-106zm117-109v401c0 54 0 54 8 54s8 0 8-54v-754h-16z"/><path d="m414 1379v19h-29v124h29v5l1 19v15h21l364 1h343l-15-9c-58-32-72-45-81-70-8-24-2-51 16-72 6-7 10-11 18-15l16-9c14.3-9.58 29-18.6 44-27h-727zm666 12c-2 2-19 2-134 2-131 0-132 0-132 3 0 2 1 2 128 2 82 0 127 1 125 2l-107 1c-105 0-106 0-106 3 0 2 1 2 103 2 68 0 102 1 102 2l-93 1c-90 0-91 0-91 3 0 2 1 2 89 2 58 0 89 1 89 2l-99 1c-98 0-99 0-99 3 0 2 1 2 96 2 63 0 96 1 96 2l-94 1c-93 0-94 0-94 3 0 2 1 2 93 2 62 0 92 1 92 2l-107 1c-114 0-136 1-136 4l120 1c79 0 120 1 120 2l-48 1c-46 0-47 0-47 3 0 2 1 2 47 2 30 0 46 1 46 2l-46 1c-46 0-47 0-47 3 0 2 1 2 46 2 30 0 46 1 46 2l-46 1c-33 0-46 1-46 2h-39c-36-1-40-1-40 1s8 2 86 2c75 0 85 1 85 2 0 2-5 2-42 2-126 0-133 0-133 2s11 2 88 2c78 0 88 1 88 2 0 2-10 2-84 2-73 0-84 1-84 2 0 2 11 2 85 2s85 1 85 2c0 2-10 2-78 2-69 0-78 1-78 2 0 2 4 2 35 2 93 1 122 1 123 3l-72 1c-63 0-72 1-72 2 0 3-1 3 101 2 39 0 46 1 47 2 2 2-5 2-67 2-68 0-69 0-69 3s1 3 71 3l71 1-71 1c-66 0-70 1-69 3 0 2 5 2 73 3l73 1-73 1c-68 0-72 1-72 3 1 2 6 2 77 3l77 1c1 1-25 1-76 1-76 0-77 0-77 3s1 3 81 3l83 1c2 1-170 2-382 1-24-0.724-48-1.39-72-2 155 0 156 0 156-3s-1-3-164-3l-165-1c-1-1 45-1 136-1l138-1c0-4-3-5-143-5l-142-1c-2-1 38-1 112-1 113 0 114 0 114-3s-1-3-117-3l-118-1c-1-1 40-1 120-1 120 0 120 0 120-3-1-3-2-3-123-3-96 0-122-1-123-2 0-1 14-2 66-2 200 0 190 1 190-2 0-1-15-2-130-2-114 0-130 0-130-2 0-1 9-2 68-2 210 0 201 1 201-2 0-1-16-2-136-2-107 0-136-1-137-2 0-1 31-2 154-2 137 0 155 0 155-2s9-2-240-2c-61 0-70 0-70-2 0-1 19-2 160-2 142 0 161 0 161-2s8-2-252-2c-62 0-71 0-71-2 0-1 19-2 162-2 160 0 161 0 161-2 0-3-1-3-161-3l-162-1c0-1 55-2 162-2 160 0 161 0 161-2 0-3-1-3-161-3l-160-1c0-1 34-2 101-2 100 0 101 0 101-2 0-3-1-3-101-3-66 0-100 0-99-1 0-1 37-2 104-2 103 0 104 0 104-2 0-3-1-3-103-3l-103-1c1-1 49-2 142-2 139 0 140 0 140-2 0-3-1-3-138-3l-139-1c0-1 45-2 133-2 133 0 134 0 134-2 0-3-1-3-131-3-87 0-131 0-130-1 0-1 45-2 131-2 129 0 129 0 129-2-1-3-2-3-127-3-84 0-126 0-125-1s40-2 109-2c95 0 108 0 108-2s-13-2-104-3c-57 0-103-1-101-2l97-1c95 0 96 0 96-2 0-3-1-3-88-3-26.7-0.228-53.3-0.895-80-2 201-2.24 402-2.24 603 0z"/></svg>
