<?xml version="1.0" encoding="UTF-8" standalone="no"?><svg xmlns="http://www.w3.org/2000/svg" width="2000" height="2000" version="1"><g stroke="#000"><path d="M1168 590c22-3 26 3 23 12-90 72-110 184-110 483v251h-54V769c0-36-48-37-48 0v567h-54v-251c0-299-20-411-110-483-3-9 1-15 22-12z" stroke-width="1.2898"/><path d="M1322 727c-76-32-220 21-205 183v280c12-20 26-41 50-61l-2-204c7-34 46-21 46-1v161c26-22 54-38 87-44l-2-246c-1-12-3-31 12-42 13-9 25-18 14-26zM678 727c76-32 220 21 205 183v280c-12-20-25-41-50-61l2-204c-7-34-46-21-46-1v161c-26-22-54-38-87-44l2-246c1-12 4-31-12-42-13-9-25-18-14-26zM597 1035V827c-11-32 14-24 25-14 33 26 32 68 34 99v123zM1397 1035V827c12-32-14-24-24-14-33 26-33 68-34 99v123z" stroke-width="1.2898"/><path d="M1097 1336c106-298 301-318 444-187 21 20 8 33-20 22-139-17-205 68-264 164h-59c34-59 49-112 138-165 16-9 1-37-22-28-89 36-130 108-158 194zM907 1336c-106-298-301-318-445-187-21 20-8 33 21 22 139-17 205 68 263 164h59c-33-59-48-112-138-165-15-9 0-37 22-28 89 36 130 108 159 194zM1067 1376v57h155c28 6 38 20 39 35h-194v109h275c24-2 19-18 18-35-1-73-59-165-142-166z" stroke-width="1.2898"/><path d="M1050 1418a48 48 0 1 1-95 0 48 48 0 0 1 95 0z" stroke-width="3.8694" stroke-linecap="round" stroke-linejoin="bevel"/><path d="M939 1376l-1 57H783c-28 6-38 20-39 35h195v109H663c-23-2-18-18-18-35 1-73 60-165 142-166zM1293 1348c59-110 140-156 243-153 43 2 63 29 66 63-138-20-214 38-263 129a88 88 0 0 0-46-39zM707 1348c-59-110-140-156-243-153-43 2-63 29-66 63 138-20 214 38 263 129 13-19 28-33 46-39zM926 1615l62-79c15-21 14-19 29 0l63 79c-30 1-52 10-69 38-9 20-8 16-17 0-16-28-39-37-68-38z" stroke-width="1.2898"/></g><path d="M851 108v123c-36 7-72 17-107 29l-61-107-258 149 62 106c-28 25-54 51-79 79l-106-62-149 258 107 61c-12 35-22 71-29 107H108v298h123c7 36 17 72 29 107l-107 61 149 258 106-62c25 28 51 54 79 79l-62 106 258 149 61-107c35 12 71 22 107 29v123h298v-123c36-7 72-17 107-29l61 107 258-149-62-106c28-25 54-51 79-79l106 62 149-258-107-61c12-35 22-71 29-107h123V851h-123c-7-36-17-72-29-107l107-61-149-258-106 62c-25-28-51-54-79-79l62-106-258-149-61 107c-35-12-71-22-107-29V108H851zm78 73h141v123c77 7 150 27 217 57l62-106 122 71-62 106c61 44 115 98 159 159l106-62 71 122-106 62c30 67 50 140 57 217h123v140h-123c-7 77-27 150-57 217l106 62-71 122-106-62c-44 61-98 115-159 159l62 106-122 71-62-106c-67 30-140 50-217 57v123H929v-123c-76-7-149-27-216-57l-62 106-122-71 62-106c-61-44-115-98-159-159l-106 62-71-122 106-62c-30-67-50-140-57-217H181V930h123c7-77 27-150 57-217l-106-62 71-122 106 62c44-61 98-115 159-159l-62-106 122-71 62 106c67-30 140-50 216-57V181z" stroke="#000" stroke-width="7.7388" stroke-linecap="round" stroke-linejoin="bevel"/><path d="M1947 1000a947 947 0 1 1-1894 0 947 947 0 0 1 1894 0z" fill="none" stroke="#000" stroke-width="38.694" stroke-linecap="round" stroke-linejoin="bevel"/><g style="line-height:125%;-inkscape-font-specification:B Traffic" font-size="140" font-weight="700" letter-spacing="0" word-spacing="0" font-family="B Traffic"><path style="-inkscape-font-specification:B Traffic Bold" d="M1560 880l6-4 30-43 19 11-31 44c-5 7-11 11-18 13-19 5-32-3-38-25l-5-22c-3-11 0-24 10-37l17 10-3 7c-2 5-3 9-2 12l6 25c2 7 5 10 9 9zM1508 809l-8-19 101-42 8 20zM1552 733l-9-19 19-9 9 19zm-56-8l-21 10 9 18c7 15 20 18 37 10 6-3 15-13 25-29l-19-12-12 18-4 3c-3 2-6 0-8-4z"/><path style="-inkscape-font-specification:B Traffic Bold" d="M1522 640l-11-15-15 11 11 15zm-13-19l-11-15-15 11 10 15zm24-4l-11-15-15 11 11 15zm-111 16c-10 1-19-3-25-12l-3-4 19-14 2 3c2 3 4 5 6 5 3 1 7 0 12-3l19-14 12 17c-20 14-27 25-20 34 3 5 9 5 17-1l18-13 12 17-17 14c-7 8-8 14-4 20 3 4 8 4 16-1l19-14 12 17c-12 9-20 16-22 22-2 4-1 9 3 14l3 4-19 14-3-4c-6-8-7-17-3-27-11 1-18-2-23-9-6-8-8-17-5-27-4 0-9-1-13-3-5-2-8-5-11-9s-4-8-5-13c0-5 1-9 3-13z"/><path style="-inkscape-font-specification:B Traffic Bold" d="M1361 560l6 4c2 1 4 0 6-1l4-7 9-34c1-5 3-8 5-11 5-5 11-6 19-2l50 25-5 17-43-22c-3-2-5-2-6 0l-2 4-8 32c-4 14 0 27 10 37l4 3-16 17-4-3c-4-4-8-9-10-15-3-6-4-12-2-17-11 4-22 1-33-10l-14-12 16-18zm50-70l55 27-4 12-54-27z"/><path style="-inkscape-font-specification:B Traffic Bold" d="M1334 568l-15-10c-7-6-11-13-10-22 1-8 4-16 10-24l41-59 17 12-37 53c-4 5-6 10-7 13 0 5 2 9 7 13l8 5zM1298 508c-4 9-11 14-21 14-8 0-16-2-25-6-10-6-17-13-20-22s-2-19 4-29c3-7 9-13 16-16 8-4 16-4 23-1 8 5 15 13 21 26 6 14 7 25 2 34zm-20-12c2-4 2-9-2-16-3-6-6-10-10-11h-7l-5 6c-3 4-3 8-1 12s5 6 9 9c9 4 14 4 16 0zM1088 431c27-26 49-37 66-34 9 2 15 7 19 15 5 8 6 16 4 24-2 13-8 23-17 28-8 5-17 6-26 4l-38-8c-13-3-21-9-24-19-3 4-6 7-9 8-5 2-11 2-20 0l-5-1 5-23 4 1c7 1 12-1 13-8l5-24 21 4-3 18c-1 2-1 5 1 8l4 7zm48 13c12 3 19-1 22-11 0-4 0-7-3-10l-8-5c-6-1-12 0-19 4l-21 16z"/><path style="-inkscape-font-specification:B Traffic Bold" d="M1023 381l-21-1 1-21 21 1zm19 71h-4c-5-1-9-2-13-5-4-2-7-6-9-10-4 9-12 13-22 13h-11v-24h5c8 1 12-4 13-13l1-24 20 1v12c-1 17 5 26 17 26h4z"/><path style="-inkscape-font-specification:B Traffic Bold" d="M987 449l-7 1c-5 0-12-2-19-5l-10-6c-8 9-17 14-27 15l-15 1-2-23 6-1c9 0 16-2 20-4l-13-10c-5-4-8-9-9-12 0-6 4-10 14-14l20-6c6 0 12 1 17 3 6 2 9 7 10 12l-1 9-9 14c4 3 8 4 14 3l10-1z"/><path style="-inkscape-font-specification:B Traffic Bold" d="M890 383l-18 4-4-18 18-4zm-25 5l-18 4-3-19 18-3zm48 67l-4 1c-5 1-9 1-14-1-4-2-8-5-10-8-3 10-9 16-19 18l-11 2-5-23 4-1c8-2 12-7 10-16l-5-23 21-4 2 11c3 17 11 24 23 22l4-1z"/><path style="-inkscape-font-specification:B Traffic Bold" d="M858 462l-5 2 3 15c-1 12-7 24-18 35-10 9-21 16-34 21-29 12-50 2-63-30-3-7-4-16-4-27l19-1c0 7 2 13 4 19 7 18 20 24 39 16 20-7 32-17 36-29v-3a455 455 0 0 0-42 3l-1-20 58-23zM697 536l-17 12-62-90 18-12zM582 594c-6-36-3-61 11-73 6-6 13-8 23-7 9 1 16 4 22 10 9 10 13 20 12 31-1 9-4 17-12 24l-28 26c-10 9-19 12-29 8 1 5 2 9 1 12-1 5-5 11-11 16l-4 4-16-17 3-3c6-5 6-10 1-15l-16-18 15-15 12 13 8 4h8zm39-31c9-9 10-17 3-24-3-3-6-4-9-4-4 0-7 2-10 4-4 4-6 10-7 18-1 6 0 14 1 26z"/><path style="-inkscape-font-specification:B Traffic Bold" d="M519 642c-2-2-4-2-7-1l-5 4c-4 6-4 10 0 13 2 2 5 2 9 2 3 0 5-1 7-3v-7c0-4-2-6-4-8zm5 67l-19-14 14-18c-10 2-17 0-23-4-7-5-11-11-12-18 0-7 2-14 7-21 11-15 24-18 38-7 4 2 7 6 9 11 2 4 2 7 2 10l13-19 19 14-8 12-12 10-12 5c0 3 0 8-2 13-1 6-3 11-6 15zm-35-89l-12 17-17-12 13-17z"/><path style="-inkscape-font-specification:B Traffic Bold" d="M527 705l-3 5-4 12c-1 6 0 10 3 12 3 1 7 0 12-3l10-9 16 16a65 65 0 0 1-67 19c1 4 0 8-2 13l-3 5-21-11 2-3c4-8 3-13-4-17l-24-13 10-18 35 19 17 6c-4-6-6-12-6-18-1-7 1-13 4-18l4-8z"/><path style="-inkscape-font-specification:B Traffic Bold" d="M492 771l-7 17c-3 8-10 13-19 15-8 1-16 0-26-4l-66-26 8-20 59 24 15 3c5 0 8-4 10-9l4-9zM444 821c12 2 23 8 31 17 13 14 17 30 13 51a48 48 0 0 1-60 38c-4-1-11-3-20-8l8-17 15 5c8 2 16 0 22-5 7-4 11-11 12-19 3-11 1-20-3-27-5-8-13-13-23-15-6-1-16 0-29 3l-8-21c12-5 26-6 42-2zm-33 43l-4 21-21-5 5-20z"/></g><path d="M456 920a550 550 0 0 1 1086-11" fill="none"/></svg>