<?xml version="1.0" encoding="UTF-8"?><svg xmlns="http://www.w3.org/2000/svg" width="461.5" height="461.5" viewBox="0 0 122.1 122.1" shape-rendering="geometricPrecision" text-rendering="geometricPrecision" image-rendering="optimizeQuality" fill-rule="evenodd" clip-rule="evenodd"><defs><style>.str0,.str1{stroke:#00a8d6;stroke-width:.7056}.str0{stroke:#0baedd}.fil2{fill:none}.fil0{fill:#0baedd}.fil1,.fil3{fill:#fff}</style></defs><g id="Layer_x0020_1"><g id="_75083520"><ellipse id="_77310928" class="fil0" cx="62.1" cy="60.1" rx="55" ry="54.9"/><ellipse id="_77315488" class="fil1 str0" cx="60.7" cy="6" rx="4.1" ry="4.1"/><path id="_77319576" class="fil2 str0" d="M58.7 4.2c-1 2.7-.1 4.5 3.7 3.8"/><ellipse id="_77319688" class="fil1 str0" transform="matrix(.95218 -.16924 .16672 .93603 52.9 6.7)" rx="4.2" ry="4.3"/><path id="_77327016" class="fil2 str0" d="M50.5 5.2c-.5 2.9.7 4.5 4.3 3"/><ellipse id="_77327064" class="fil1 str0" transform="matrix(.94193 -.21911 .21585 .92595 45.1 8.5)" rx="4.2" ry="4.3"/><path id="_77329664" class="fil2 str0" d="M42.8 7.2c-.5 2.9.9 4.5 4.4 2.9"/><ellipse id="_77329712" class="fil1 str0" transform="matrix(.94193 -.21911 .21585 .92595 37.6 11.3)" rx="4.2" ry="4.3"/><path id="_77339640" class="fil2 str0" d="M35.2 10c-.4 2.9 1 4.4 4.4 2.8"/><ellipse id="_77339688" class="fil3 str0" transform="matrix(.92565 -.27992 .27574 .90995 30.5 15.4)" rx="4.2" ry="4.3"/><path id="_77342288" class="fil2 str0" d="M28 14.2c-.2 3 1.2 4.4 4.6 2.6"/><ellipse id="_77342336" class="fil3 str0" transform="matrix(.92565 -.27992 .27574 .90995 24 20.3)" rx="4.2" ry="4.3"/><path id="_77352264" class="fil2 str0" d="M21.6 19c-.3 3 1.2 4.5 4.6 2.7"/><ellipse id="_77352312" class="fil3 str0" transform="matrix(.92565 -.27992 .27574 .90995 18.6 26)" rx="4.2" ry="4.3"/><path id="_77354912" class="fil2 str0" d="M16.1 24.8c-.2 3 1.3 4.5 4.7 2.6"/><ellipse id="_77354960" class="fil3 str0" transform="matrix(.90436 -.34241 .3373 .88901 5.7 62.8)" rx="4.2" ry="4.3"/><path id="_77364888" class="fil2 str0" d="M3.2 61.8C3.2 64.7 4.7 66 8 64"/><ellipse id="_77364936" class="fil3 str0" transform="matrix(.90436 -.34241 .3373 .88901 6 54.8)" rx="4.2" ry="4.3"/><path id="_77371200" class="fil2 str0" d="M3.4 53.8c0 3 1.5 4.3 4.8 2.3"/><ellipse id="_77371248" class="fil3 str0" transform="matrix(.90436 -.34241 .3373 .88901 7.5 47)" rx="4.2" ry="4.3"/><path id="_77377520" class="fil2 str0" d="M5 46c0 2.9 1.5 4.3 4.7 2.2"/><ellipse id="_77373728" class="fil3 str0" transform="matrix(.92543 -.28066 .27647 .90973 10.2 39.5)" rx="4.2" ry="4.3"/><path id="_77383904" class="fil2 str0" d="M7.7 38.3c-.2 3 1.3 4.4 4.7 2.6"/><ellipse id="_77383952" class="fil3 str0" transform="matrix(.92543 -.28066 .27647 .90973 13.8 32.3)" rx="4.2" ry="4.3"/><path id="_77386648" class="fil2 str0" d="M11.3 31.1c-.2 3 1.2 4.4 4.6 2.6"/><ellipse id="_77386728" class="fil3 str0" transform="matrix(.90436 -.34241 .3373 .88901 62 117)" rx="4.2" ry="4.3"/><path id="_77396656" class="fil2 str0" d="M59.4 116c0 2.9 1.6 4.3 4.8 2.2"/><ellipse id="_77396704" class="fil3 str0" transform="matrix(.90436 -.34241 .3373 .88901 54.1 116)" rx="4.2" ry="4.3"/><path id="_77399304" class="fil2 str0" d="M51.6 115c0 3 1.5 4.3 4.8 2.2"/><ellipse id="_77399352" class="fil3 str0" transform="matrix(.90436 -.34241 .3373 .88901 46.4 114.3)" rx="4.2" ry="4.3"/><path id="_77409168" class="fil2 str0" d="M43.9 113.2c0 3 1.5 4.4 4.8 2.3"/><ellipse id="_77409216" class="fil3 str0" transform="matrix(.94293 -.21478 .21158 .92694 39 111.8)" rx="4.2" ry="4.3"/><path id="_77411832" class="fil2 str0" d="M36.6 110.4c-.4 3 1 4.5 4.5 3"/><ellipse id="_77411880" class="fil3 str0" transform="matrix(.94293 -.21478 .21158 .92694 32 108.4)" rx="4.2" ry="4.3"/><path id="_77421936" class="fil2 str0" d="M29.5 107c-.4 3 1 4.5 4.5 3"/><ellipse id="_77421984" class="fil3 str0" transform="matrix(.94293 -.21478 .21158 .92694 25.5 103.8)" rx="4.2" ry="4.3"/><path id="_77424480" class="fil2 str0" d="M23.2 102.5c-.5 2.9.9 4.4 4.4 2.8"/><ellipse id="_77424528" class="fil3 str0" transform="matrix(.90887 -.33028 .32536 .89345 19.7 98.5)" rx="4.2" ry="4.3"/><path id="_77434584" class="fil2 str0" d="M17.1 97.4c0 3 1.5 4.3 4.8 2.3"/><ellipse id="_77434632" class="fil3 str0" transform="matrix(.86676 -.4286 .4222 .85206 15 92.1)" rx="4.2" ry="4.3"/><path id="_77437120" class="fil2 str0" d="M12.4 91.4c.3 2.9 2 4.1 5 1.8"/><ellipse id="_77437168" class="fil3 str0" transform="matrix(.86676 -.4286 .4222 .85206 11.1 85.6)" rx="4.2" ry="4.3"/><path id="_77443456" class="fil2 str0" d="M8.5 84.8c.2 3 1.9 4.2 5 1.8"/><ellipse id="_77443504" class="fil3 str0" transform="matrix(.86676 -.4286 .4222 .85206 8 78.4)" rx="4.2" ry="4.3"/><path id="_77453536" class="fil2 str0" d="M5.4 77.7c.2 3 1.9 4.1 5 1.8"/><ellipse id="_77453584" class="fil3 str0" transform="matrix(.86676 -.4286 .4222 .85206 6.1 70.7)" rx="4.2" ry="4.3"/><path id="_77456200" class="fil2 str0" d="M3.5 70c.2 2.9 1.9 4.1 5 1.7"/><ellipse id="_77456248" class="fil1 str0" transform="matrix(-.06127 -.96419 -.9498 .06023 68.7 6.7)" rx="4.2" ry="4.3"/><path id="_77466048" class="fil2 str0" d="M70.7 8.6c-2.7 1.2-4.6.4-4-3.5"/><ellipse id="_77466096" class="fil1 str0" transform="matrix(.03635 -.96545 -.95105 -.03573 76.6 8.3)" rx="4.2" ry="4.3"/><path id="_77468568" class="fil2 str0" d="M78.4 10.4c-2.7 1-4.6-.1-3.6-3.9"/><ellipse id="_77468648" class="fil1 str0" transform="matrix(.0753 -.9632 -.94883 -.07403 84.2 10.9)" rx="4.2" ry="4.3"/><path id="_77478616" class="fil2 str0" d="M86 13c-3 1-4.7-.2-3.6-3.9"/><ellipse id="_77478664" class="fil3 str0" transform="matrix(.03853 -.96536 -.95096 -.03788 91.4 14.6)" rx="4.2" ry="4.3"/><path id="_77481168" class="fil2 str0" d="M93.1 16.7c-2.7 1-4.5 0-3.6-3.8"/><ellipse id="_77481216" class="fil3 str0" transform="matrix(.18396 -.94849 -.93434 -.18084 97.6 19.4)" rx="4.2" ry="4.3"/><path id="_77491304" class="fil2 str0" d="M99 21.7c-2.8.6-4.5-.7-3-4.3"/><ellipse id="_77491352" class="fil3 str0" transform="matrix(.10928 -.95994 -.94563 -.10743 103.2 25)" rx="4.2" ry="4.3"/><path id="_77493864" class="fil2 str0" d="M104.8 27.2c-2.8.8-4.6-.4-3.4-4"/><ellipse id="_77493912" class="fil3 str1" transform="matrix(.26072 -.93036 -.91649 -.2563 116.7 61)" rx="4.2" ry="4.3"/><path id="_77504008" class="fil2 str1" d="M118 63.4c-3 .3-4.5-1-2.8-4.5"/><ellipse id="_77504056" class="fil3 str1" transform="matrix(.24609 -.93433 -.9204 -.24191 116.3 53.2)" rx="4.2" ry="4.3"/><path id="_77510536" class="fil2 str1" d="M117.5 55.7c-2.9.3-4.4-1.1-2.7-4.6"/><ellipse id="_77510584" class="fil3 str1" transform="matrix(.32857 -.90867 -.89511 -.323 114.5 45.4)" rx="4.2" ry="4.3"/><path id="_77513024" class="fil2 str1" d="M115.5 48c-2.9 0-4.3-1.5-2.3-4.8"/><ellipse id="_77513072" class="fil3 str0" transform="matrix(.08232 -.96262 -.94827 -.08092 111.6 38.3)" rx="4.2" ry="4.3"/><path id="_77523256" class="fil2 str0" d="M113.3 40.5c-2.9.8-4.6-.3-3.5-4"/><ellipse id="_77523304" class="fil3 str0" transform="matrix(.13453 -.95674 -.94247 -.13225 108 31.2)" rx="4.2" ry="4.3"/><path id="_77525840" class="fil2 str0" d="M109.6 33.5c-2.9.7-4.6-.6-3.3-4.2"/><ellipse id="_77525888" class="fil3 str0" transform="matrix(-.12217 -.95839 -.9441 .1201 70 116)" rx="4.2" ry="4.3"/><path id="_77535968" class="fil2 str0" d="M72.4 117.6c-2.4 1.7-4.5 1.1-4.6-2.7"/><ellipse id="_77536016" class="fil3 str0" transform="matrix(.10715 -.96018 -.94586 -.10533 77.8 114.2)" rx="4.2" ry="4.3"/><path id="_77538528" class="fil2 str0" d="M79.8 116c-2.6 1.3-4.6.6-4.2-3.3"/><ellipse id="_77538576" class="fil3 str0" transform="matrix(.15181 -.95415 -.93992 -.14924 85.3 111.1)" rx="4.2" ry="4.3"/><path id="_77548664" class="fil2 str0" d="M87.3 112.8c-2.6 1.5-4.5.7-4.2-3.1"/><ellipse id="_77548712" class="fil3 str0" transform="matrix(.0301 -.96566 -.95126 -.0296 92.2 107.3)" rx="4.2" ry="4.3"/><path id="_77551184" class="fil2 str0" d="M94 109.4c-2.7 1-4.6 0-3.7-3.8"/><ellipse id="_77551232" class="fil3 str0" transform="matrix(.22718 -.9391 -.92509 -.22332 98.4 102.4)" rx="4.2" ry="4.3"/><path id="_77561248" class="fil2 str0" d="M99.8 104.8c-3 .4-4.5-1-2.9-4.4"/><ellipse id="_77561296" class="fil3 str0" transform="matrix(.01686 -.96598 -.95157 -.01657 104 96.8)" rx="4.2" ry="4.3"/><path id="_77563768" class="fil2 str0" d="M105.7 98.8c-2.7 1-4.6 0-3.7-3.7"/><ellipse id="_77563816" class="fil3 str0" transform="matrix(-.03984 -.9653 -.95091 .03917 108.8 90.5)" rx="4.2" ry="4.3"/><path id="_77573848" class="fil2 str0" d="M110.8 92.5c-2.7 1.2-4.6.3-4-3.5"/><ellipse id="_77573896" class="fil3 str1" transform="matrix(.0994 -.96101 -.94668 -.09771 112.3 83.5)" rx="4.2" ry="4.3"/><path id="_77580160" class="fil2 str1" d="M114 85.7c-3 .8-4.7-.3-3.5-4"/><ellipse id="_77580208" class="fil3 str1" transform="matrix(.33286 -.9071 -.89358 -.32721 115 76.3)" rx="4.2" ry="4.3"/><path id="_77582688" class="fil2 str1" d="M116 78.9c-3 0-4.3-1.5-2.3-4.8"/><ellipse id="_77582760" class="fil3 str1" transform="matrix(.46953 -.84463 -.83204 -.46156 116.7 68.8)" rx="4.2" ry="4.3"/><path id="_77592808" class="fil2 str1" d="M117.3 71.5c-2.9-.4-4-2.1-1.5-5"/><path id="_77592856" class="fil3" d="M56.5 94.5l-2-1.2c7.6-8.6-8-19-13.8-16.9C7 60.6 26 42.6 26.9 54.2c-7.2-5.9-5.7 13.3 6.1 11.4-1 4 11.5 5.3 19.6 10.6 6.3 4 9.5 12.4 4 18.3z"/><path id="_77589808" class="fil3" d="M46.3 96.1c.6-1 .8-1.2 1.9-1.8-3.3-3-6.5-1.5-2 1.8z"/><path id="_77598480" class="fil3" d="M36 92l-2.7-1.5v1.6L36 94z"/><path id="_77598528" class="fil3" d="M44.4 91.3c-1 .4-1.6.6-1.8 2-6.7-2.8-3.8-9.4 1.8-2z"/><path id="_77601680" class="fil3" d="M40.8 94c-1 0-1.1 0-1.7.8-3.3-2.7-2-4.6 1.7-.9z"/><path id="_77604472" class="fil3" d="M34.6 86.6c2.4.9 3 1.7 3 2.1V91c-1 0-2-1-3-2v-2.4z"/><path id="_77611048" class="fil3" d="M24.6 85.7c3.1 6.8 8.2 13.6 12.3 11 .1-.1 0-.5-.5-.7-2-1-7.6-3.2-11.8-10.3z"/><path id="_77607704" class="fil3" d="M32.5 90l-.3 2.5c-5.4-4.4-9.1-10.1-11.4-16 3.5 4.9 6.6 9.6 11.7 13.6z"/><path id="_77039624" class="fil3" d="M59.8 100h1c.2 0 .3 0 .3.2v4.6c0 .2-.1.3-.3.3h-1a.3.3 0 0 1-.3-.3v-4.6c0-.1.1-.2.3-.2z"/><path id="_77040528" class="fil3" d="M61.6 96.5c-4.7 1-12.6-6.1-14.1 1.4-.3 0-.9.1-1.2-.3-6.2-6.1-11.6-.4-7 2.7.2-1.1 0-2.1.3-2.6 2.6-3.2 5.3 4.6 8 5.7 2.2.9 6 .3 5-4.1-2.6 1.3-2.8 0-2.9-.5-.4-2.4 7.9-5 7 6.6l2-.4.1-4.4c0-1.2.7-2 2.8-1.8v-2.3z"/><path id="_77040064" class="fil3" d="M66.6 94.5l2-1.2c-7.6-8.6 8-19 13.8-16.9 33.7-15.8 14.7-33.8 13.8-22.2 7.2-5.9 5.7 13.3-6.1 11.4 1 4-11.5 5.3-19.6 10.6-6.3 4-9.5 12.4-4 18.3z"/><path id="_77040824" class="fil3" d="M76.8 96.1c-.6-1-.8-1.2-1.9-1.8 3.3-3 6.5-1.5 2 1.8z"/><path id="_77630208" class="fil3" d="M87 92l2.8-1.5v1.6L87.2 94z"/><path id="_77630256" class="fil3" d="M82.3 94c1 0 1.1 0 1.7.8 3.3-2.7 2-4.6-1.7-.9z"/><path id="_77635688" class="fil3" d="M98.5 85.7c-3.1 6.8-8.2 13.6-12.3 11-.1-.1 0-.5.5-.7 2-1 7.6-3.2 11.8-10.3z"/><path id="_77633008" class="fil3" d="M90.6 90l.3 2.5c5.4-4.4 9.1-10.1 11.4-16-3.5 4.9-6.6 9.6-11.7 13.6z"/><path id="_77644016" class="fil3" d="M62.3 100h1c.2 0 .3 0 .3.2v4.6c0 .2-.1.3-.3.3h-1a.3.3 0 0 1-.3-.3v-4.6c0-.1.1-.2.3-.2z"/><path id="_77643832" class="fil3" d="M61.5 96.5c4.7 1 12.6-6.1 14 1.4.4 0 1 .1 1.3-.3 6.2-6.1 11.6-.4 7 2.7-.2-1.1 0-2.1-.3-2.6-2.6-3.2-5.3 4.6-8 5.7-2.2.9-6 .3-5-4.1 2.6 1.3 2.8 0 2.9-.5.4-2.4-7.9-5-7 6.6l-2-.4-.1-4.4c0-1.2-.7-2-2.8-1.8v-2.3z"/><path id="_77651808" class="fil3" d="M42.6 39.8H46v21.7h-3.4z"/><g id="_44757456"><path id="_77443672" class="fil3" d="M43.9 79.5c-1 .7-1.1.9-1.6 2-3.8-2-3.8-7 1.6-2z"/><path id="_77440360" class="fil3" d="M41.8 86c-.7-1.7 0-3 1.7-2l3.5 3.8c1.2 2.3 0 2.9-1.8 1.7L41.8 86z"/><path id="_77442672" class="fil3" d="M42.6 82.7c-1.2.4-1.3.5-1.9 1.7-5.1-3.1-2.8-5.9 2-1.7z"/><path id="_77447208" class="fil3" d="M40.5 86c-1 .3-1.4.4-2.3 1-3.7-2-1.8-6.6 2.3-1z"/><path id="_79088320" class="fil3" d="M33.6 89.3c-2.2-.1-10.5-9.7-13.4-17 4 5.2 8 10.2 13.4 14v3z"/><path id="_77446208" class="fil3" d="M18.8 64.5c4.1 8.4 9 13.7 16.4 18.8v2.3h-1.4c-9.2-9-13.6-11.9-15-21z"/><path id="_77816304" class="fil3" d="M35.2 82.4c-9-7.5-15.4-13.7-16.6-22.8 4.1 9 8.9 14.4 18.2 21.1 0 1.8.2 1.6-1.6 1.7z"/><path id="_77452080" class="fil3" d="M21 51.5C17 60.9 25.2 70 38.6 77c.4 1.8.6 2.2-1.6 2.2-7.7-4-23.4-20.3-16-27.7z"/><path id="_77196488" class="fil3" d="M89.5 89.3c2.2-.1 10.5-9.7 13.4-17-4 5.2-8 10.2-13.4 14v3z"/><path id="_77918328" class="fil3" d="M104.3 64.5c-4.1 8.4-9 13.7-16.4 18.8v2.3h1.4c9.2-9 13.6-11.9 15-21z"/><path id="_77315336" class="fil3" d="M87.9 82.4c9-7.5 15.4-13.7 16.6-22.8-4.1 9-8.9 14.4-18.2 21.1 0 1.8-.2 1.6 1.6 1.7z"/><path id="_77817304" class="fil3" d="M102.1 51.5c4 9.4-4.2 18.5-17.6 25.5-.4 1.8-.6 2.2 1.6 2.2 7.7-4 23.4-20.3 16-27.7z"/><path id="_77840704" class="fil3" d="M40.9 51.1H29.8V62h11V51.1zm-7.3 3.5h3.8v4h-3.8v-4z"/><path id="_77813768" class="fil3" d="M42.6 58.1h35.1v3.3H42.6z"/><path id="_77819352" class="fil3" d="M85.2 47.8H92v3.1h-6.8z"/><path id="_77444672" class="fil3" d="M83.3 58.1H92v3.4h-8.7z"/><path id="_77818768" class="fil3" d="M88.7 47.8h3.4v13.7h-3.4z"/></g><g id="_77838256"><path id="_77388720" class="fil3" d="M79.2 18.6h3.3V22h-3.3z"/><path id="_67202064" class="fil3" d="M74.4 18.6h3.2V22h-3.2z"/><path id="_67182192" class="fil3" d="M80.6 24.7h-3.2v6.9h-2.6v-4.7h-7.4v4.8H49.8v8.1h-2.4v1.7h6l-.1-7H67.4v4.8h7.4v-4.8h5.8z"/><path id="_77305736" class="fil3" d="M59 21.1h3.5v18.4H59z"/><path id="_77714896" class="fil3" d="M58.9 16.7h3.4v3.2h-3.4z"/><path id="_77715232" class="fil0" d="M70.1 29.1h2.4v2.5h-2.4z"/><path id="_67179600" class="fil0" d="M70.1 34.5h2.5v2.3h-2.5z"/><path id="_25846928" class="fil3" d="M72.2 16.8h-2.7c-1.4 11.5-17.2 10-17.1 0h-3c.8 14 21 15.1 22.8 0z"/><path id="_77326000" class="fil3" d="M52.9 90c-1-6.5 3.3-5.9 2.5-.2 0 0-1.5.5-2.3.4-.3 0-.2.1-.2-.2z"/><path id="_25846856" class="fil3" d="M53.4 93l-3.8.3c0-5.6 3.2-2.6 3.8-.4z"/><path id="_44663320" class="fil3" d="M51.9 88.7c-1.3-.4-2 0-2.9 1.7-3.4-5.6 0-8.5 2.9-1.7z"/><path id="_77442208" class="fil3" d="M53.8 83.5c-1.8.7-1.4 1-2 2.8-5-4.4-3.9-8.4 2-2.8z"/><path id="_67201008" class="fil3" d="M48 79.1c-6.6-3.4-3.8 1.6-.4 2.7-.4-1.5-.4-1.8.3-2.7z"/><path id="_67202856" class="fil3" d="M46.8 86.1c-4.7-4.1-4.4-7.6 1.8-2.4-1.4.8-1.4.8-1.8 2.4z"/><path id="_77836456" class="fil3" d="M70.2 90c1-6.5-3.3-5.9-2.5-.2 0 0 1.5.5 2.3.4.3 0 .2.1.2-.2z"/><path id="_77835808" class="fil3" d="M69.7 93l3.8.3c0-5.6-3.2-2.6-3.8-.4z"/><path id="_77835232" class="fil3" d="M71.2 88.7c1.3-.4 2 0 2.9 1.7 3.4-5.6 0-8.5-2.9-1.7z"/><path id="_77834584" class="fil3" d="M69.3 83.5c1.8.7 1.4 1 2 2.8 5-4.4 3.9-8.4-2-2.8z"/><path id="_77445672" class="fil3" d="M75.2 79.1c6.5-3.4 3.7 1.6.3 2.7.4-1.5.4-1.8-.3-2.7z"/><path id="_77922288" class="fil3" d="M78.7 91.3c1 .4 1.6.6 1.8 2 6.7-2.8 3.8-9.4-1.8-2z"/><path id="_77595224" class="fil3" d="M76.3 86.1c4.7-4.1 4.4-7.6-1.8-2.4 1.4.8 1.4.8 1.8 2.4z"/><path id="_78830240" class="fil3" d="M79.2 79.5c1 .7 1.1.9 1.6 2 3.8-2 3.8-7-1.6-2z"/><path id="_77597272" class="fil3" d="M81.3 86c.7-1.7 0-3-1.7-2L76 87.8c-1.2 2.3 0 2.9 1.8 1.7l3.4-3.5z"/><path id="_78468736" class="fil3" d="M80.5 82.7c1.2.4 1.3.5 1.9 1.7 5.1-3.1 2.8-5.9-2-1.7z"/><path id="_65852776" class="fil3" d="M82.6 86c1 .3 1.4.4 2.3 1 3.7-2 1.8-6.6-2.3-1z"/><path id="_77297208" class="fil3" d="M88.5 86.6c-2.4.9-3 1.7-3 2.1V91c1 0 2-1 3-2v-2.4z"/><path id="_77447672" class="fil3" d="M79.3 39.8h3.4v16.7h-3.4z"/><path id="_77446672" class="fil3" d="M74.2 48h3.5v13.5h-3.5z"/><path id="_77305208" class="fil3" d="M69 52.5h3.5v7.1H69z"/><path id="_77823736" class="fil3" d="M59 52.5h3.5v7.1H59z"/><path id="_77840128" class="fil3" d="M64.1 52.5h3.5v7.1h-3.5z"/><path id="_77819864" class="fil3" d="M68.9 47.8h3.5v3.4h-3.5z"/><path id="_77741072" class="fil3" d="M64.1 47.8h3.5v3.4h-3.5z"/><path id="_77820448" class="fil3" d="M74.2 43.7h3.5v2.9h-3.5z"/><path id="_77821544" class="fil3" d="M66.4 43.8h3.5v2.9h-3.5z"/><path id="_77820960" class="fil3" d="M50.2 44h12.1v2.9H50.2z"/><path id="_77842192" class="fil3" d="M50.2 44h3.1v15.9h-3.1z"/><path id="_77448208" class="fil3" d="M44.6 51.2h7.5v3.4h-7.5z"/><path id="_77843416" class="fil3" d="M53.7 41.9h5V43h-5z"/></g></g></g></svg>